<?xml version="1.0" encoding="utf-8"?>
<!-- Generator: Adobe Illustrator 21.0.2, SVG Export Plug-In . SVG Version: 6.00 Build 0)  -->
<svg version="1.1" id="Layer_4" xmlns="http://www.w3.org/2000/svg" xmlns:xlink="http://www.w3.org/1999/xlink" x="0px" y="0px"
	 viewBox="0 0 196 182.7" style="enable-background:new 0 0 196 182.7;" xml:space="preserve">
<style type="text/css">
	.st0{fill:#EDAA00;}
</style>
<path class="st0" d="M173.8,105.2c-0.1-0.8,0-2.4,0.5-4.8c0.4-2.2,0.4-3.8-0.1-5c-0.6,0.1-1,0.3-1.1,0.7c-0.2,0.6-0.3,1.7-0.5,3.3
	c-0.2,2.4-0.4,4.6-0.3,6.6c0.1,3.1,0.5,5.6,1.3,7.4c-0.7-0.9-1.5-1.5-2.5-1.7c-0.4,0-0.7,0-0.8,0c-0.1,0.3-0.2,0.6-0.2,0.8
	c-0.1,0.4,0.1,1.1,0.5,2.3c0.1,0.3,0.2,0.6,0.4,0.9c-0.3,1-0.6,2.3-1,3.8c-0.7,3.1-1.1,6-1.2,7.8l0,0c0,0.2,0,0.3,0,0.4
	c0,0,0,0.1,0,0.1l0,0c0,0.6,0.1,1.1,0.2,1.5c0.3-0.1,0.6-0.1,1-0.3l0.3-1.4l0.3-1.4c0-0.1,0-0.1,0-0.1c0-1.3,0.4-3.5,1.1-6.8
	c0.1-0.4,0.2-0.8,0.2-1.1c0,0.1,0.1,0.2,0.1,0.3c0.3,0.8,0.5,1.6,0.7,2.4c0.6,2.5,0.8,5,0.5,7.4l0,0h0c-0.1,0.5-0.2,1.1-0.3,1.6
	c-0.4,1.8-1.7,3.4-3.8,4.8c0.1-1.3-0.1-2.7-0.8-4.1c-0.3-0.7-0.7-1.3-1.2-2.1c-0.4-0.6-0.8-1.3-1.1-1.9l0,0l0-0.1l0,0
	c0.5-1.3,0.9-2.5,1.2-3.7c0.6-3.1,0.8-5.5,0.5-7.1c-0.3-1.7,1.8-2.2,2.1-7.1c0.2-2.9-0.1-5.8,0.8-7.6c0.4-0.8,0.7-1.6,1-2.4
	c1-1.9,1.9-3.3,2.4-6c0.5-2.8,0.2-3,0.8-4.8c1-2.8,2.2-6.4,3.4-10.6c1.5-5.2,2.5-8.8,3-11c-0.1-0.3-0.1-0.5-0.1-0.7l-0.8-0.4
	c-1.3,1.2-2.4,2.8-3.4,4.6c-3.4-2.1-4.1-3.9-6.3-5.3c-1-0.6-1.9-1.2-2.7-1.8c-0.2-0.1-0.3-0.2-0.5-0.3l0,0c0-0.2,0-0.4,0-0.5
	c0-1.8,0.1-3.6,0.5-5.1c0.2-1.3,0.9-2.7,1.9-4c1-1.4,1.5-2.2,1.6-2.5c0.1-0.3-0.2-0.6-0.7-0.9c-1.8,1.3-3,2.4-3.5,3.5
	c-0.2,0.4-0.6,1.6-1,3.6c-0.2,0.9-0.3,1.8-0.4,2.8c-0.1,0.6-0.1,1.2-0.1,1.9c-1.7-1.3-2.7-2.1-3.1-2.7c-1.6-2.5-2.8-4.5-3.8-5.9
	c-0.7-1.1-1.3-2-2-2.8l0,0c0,0,0,0,0,0c-0.2-0.3-0.5-0.6-0.7-0.9l-0.1,0c-0.6-0.8-1.4-1.6-1.8-2c-1.5-1.4-2.9-2.7-4-3.9
	c0.6,0.1,1.1,0.2,1.7,0.3c5.3,1,8.3,2.1,9.2,3.4c0.4,0.5,0.5,1.2,0.5,2.2c0.3,0.8,1.2,1.3,2.9,1.7c0.7,0.2,1.2,0.2,1.4,0.1
	c0.1-0.1,0.3-0.4,0.6-0.7c-2-1.4-3.5-2.7-4.4-3.7c-0.6-0.9-1-1.5-1.3-1.8c-0.5-0.6-3.7-1.5-9.6-2.8c-0.6-0.1-1.1-0.2-1.6-0.4
	c-0.4-0.1-0.9-0.2-1.3-0.2c-0.5-0.5-0.9-1-1.3-1.5c-0.3-0.3-0.5-0.6-0.7-0.9c-0.5-0.6-1-1.2-1.4-1.7l0,0c-0.8-0.9-1.4-1.6-2-2.2
	c-0.8-0.8-1.5-1.9-2.2-3.2c-0.1-0.2-0.2-0.3-0.2-0.5c1.5,0.2,3.2,0.6,5,1c0.2,0,1,1.6,2.6,4.6c0.1,0.2,0.4,0.8,0.7,1.2l-0.1,0
	c1.2,2.2,2,3.3,2.4,3.4c0.5,0.1,0.8,0,1-0.3c-0.1-0.8-0.1-1.6-0.2-2.3c0-0.1,0-0.2,0-0.2l0,0h0c-0.2-1.2-0.6-2.2-1.1-3.2
	c-1.8-3.1-5.5-5.3-11.2-6.5c-0.3-0.1-0.6-0.1-0.9-0.2c-2.4-1.9-8.7-4-18.9-6.2c-8.1-1.8-13.7-2.4-16.9-1.8c-1.1,0.2-2,0.5-3,1.1
	c-0.8,0.5-1.4,0.8-1.8,1.1c-0.3,0.1-0.4,0.2-0.5,0.2c-0.6,0.3-2.5,0.9-5.7,2c-0.3,0.1-0.6,0.2-0.9,0.3l0,0c-0.8,0.2-1.5,0.4-2.2,0.5
	c-1-0.4-2-0.9-3.1-1.3c0.1-0.1,0.1-0.2,0.2-0.3l0,0c0.2-0.3,0.5-0.6,0.7-0.8c0.8-0.9,1.5-1.9,2.2-2.9c1.1-1.7,1.8-2.9,2-3.6
	c0.1-0.5-0.1-0.9-0.6-1.2c-1.6,0.7-2.7,2.2-3.4,4.3c-0.5,1.5-0.9,2.7-1.3,3.6c-0.1,0.2-0.1,0.4-0.2,0.6l0,0c-0.1,0-0.1,0.1-0.1,0.2
	c-0.3-0.2-0.6-0.3-0.9-0.4l0,0l0,0c-0.1-0.1-0.2-0.1-0.3-0.1c-2.2-1-4.7-2.1-7.3-3.2c-0.2,0-0.5,0-0.9,0.3c-0.1,0.2-0.2,0.3-0.2,0.4
	c0,0.2,0,0.4,0,0.5l0,0c0,0,0,0,0,0.1c0,0.1,0,0.1,0.1,0.2l0,0c0.5,0.8,1.5,1.8,3.1,2.7c0.5,0.3,0.9,0.6,1.5,0.8c0,0.2,0,0.3,0,0.3
	c0.3,0.3,1.1,0.6,2.6,1c-1.5,1-3.5,1.5-6.1,1.9c0.7-0.6,1.4-1,2.1-1.3c-0.3-0.5-0.6-0.8-0.9-0.9c-1,0.9-1.9,1.7-2.8,2.4
	c-2.4,0.2-5.3,0.1-8.6-0.2c-1.9-0.2-6.5-0.7-8.8-1.1c-3.8-0.3-7.4-0.1-10.7,0.7c0.4-1,0.8-2,1-2.8l0,0c0.1-0.3,0.1-0.6,0.2-0.9
	c-0.1-0.2-0.3-0.6-0.7-1.2c-0.7,0.3-1.4,0.8-2,1.5l0,0c-0.9,1.1-1.7,2.6-2.5,4.5c-1.1,0.4-2.2,0.9-3.2,1.4c-1.1,0.6-2,1.1-2.8,1.7
	l0,0c-3.1,2.1-5,4.2-5.4,6.6c-0.1,0.6-0.1,1.2,0.2,1.7l0,0c0.1,0.2,0.1,0.3,0.2,0.4l0.3-0.1c-2.2,1.2-4,2.8-5.5,5
	c-1.7,2.5-3.1,6.2-4.2,11.3c-0.1,0.1-0.1,0.2-0.2,0.2l0,0c-0.2,0.3-0.4,0.7-0.5,1.2l0.1,0.6c0,0.2-0.1,0.4-0.1,0.6
	c-0.4,1.7-0.7,3.4-0.7,5c0,2.1,0.3,3.9,1.1,5.3c-0.1,0.2-0.3,0.5-0.4,0.7c-1.9-2.4-4.2-3.9-5.8-4.2c-0.4-0.1-0.8,0.1-1,0.5
	c0.3,0.4,1.4,1.8,3.4,4.1c0.7,0.9,1.3,1.7,2,2.5c-0.3,0.7-0.6,1.5-0.8,2.1l0,0c-0.2,0.6-0.3,1.1-0.5,1.6c-0.9,4-1.7,8.5-2.6,13.7
	c-0.1,0.8,0.1,1.9,0.6,3.1l0,0c0,0,0,0.1,0,0.1c0,0,1.5,2.8,2.7,4.5c0.6,0.8,1.3,1.9,2.2,3.1c1.1,1.5,2.5,3.3,4.1,5.4
	c0.9,1.3,1.8,3.8,2.7,7.6c0.1,0.3,0.2,0.7,0.3,1h0c1.1,4.7,2,7.8,2.5,9.3c1.3,3.9,3,7.1,5.2,9.6c0,0.2-0.1,0.4-0.1,0.7
	c-0.1,0.3-0.1,0.6-0.2,1l0,0c-0.4,1.6-0.6,2.8-0.6,3.5c-0.2,2.5,0.2,4.5,1,6.1l0,0l0,0.1c0,0,0.5,1.1,1.4,3.4
	c0.6,1.4,1.4,2.6,2.3,3.5c0.9,0.9,4.7,2.6,11.3,5.1c1.7,0.6,3.3,1.2,4.7,1.7c4.3,0.9,8.8,1.8,13.3,2.8c1.1-0.1,2.1-0.3,3.2-0.6
	c0.1,0,0.3-0.1,0.4-0.1c2,0.8,4.3,1.5,7,2.3l2.8,0.7c1.1,0.2,2.2,0.5,3.3,0.7c1.9,0.4,3.7,0.7,5.3,1.1c0.9,0.5,1.9,1,3,1.3
	c1.8,0.4,3.6,0.8,5.5,1.2c4.7,0.6,8.5-0.3,11.4-2.7c0.3-0.3,0.6-0.5,0.9-0.8c0.7-0.7,1.4-1.5,1.9-2.3l0,0c1-0.1,2-0.4,2.8-0.8
	c-0.4-0.1,0,0,0,0c0,0,0,0,0,0l0,0c0,0,0,0,0,0c0.5,0.1,5,1,6.8,1.4c0.9,0.2,1.7,0.4,2.6,0.6c1.5,0.3,3.2,0.3,5-0.1
	c2.5-0.6,4.6-0.9,6.2-1c3.3-0.2,5.8-1.4,7.3-3.5h0c0.1-0.2,0.3-0.4,0.4-0.6c0.5-0.9,1.1-3,1.8-6.3c0,0,0-0.1,0-0.1
	c0-0.1,0.1-0.3,0.1-0.4c0,0.1,0.1,0.1,0.2,0.1c0.1,0,0.1,0,0.2-0.1c2-0.1,3.9-0.6,5.6-1.5c-0.1,0.3-0.1,0.6-0.2,0.9
	c-0.1,0.3-1.3,2.2-3.7,5.7c-0.1,0.4,0.1,0.7,0.7,1.1c2-1.1,3.3-2.1,3.8-2.9c0.2-0.3,0.5-1.5,1-3.6c0.1-0.8,0.2-1.6,0.3-2.3
	c1.4-1,2.6-2.4,3.7-4c0.4-0.5,0.7-1.1,1.1-1.7c0,0,0.4-0.8,0.6-1.2c0.7-0.3,1.4-0.6,2.4-0.9c2.5-1.1,4.3-2.7,5.3-5
	c1.1-0.4,2.1-0.8,3.2-1.1c0.9-0.5,1.6-1.2,2-2c0.3-0.7,0.7-1.9,1.1-3.8c0.1-0.4,0.2-1.1,0.3-1.7l0,0c0-0.1,0-0.2,0-0.4
	c0-0.1,0-0.2,0-0.3l0,0c0.3-2.1,0.4-4.3,0.4-6.4c-0.1-2.5-0.3-4.5-0.8-6.1c-0.1-0.3-0.2-0.6-0.3-0.8c0.8,1.2,1.9,1.9,3.2,2.2
	c0.6,0.1,0.9,0.1,0.9-0.1c0.1-0.3,0.2-0.6,0.2-0.7c-1.4-2.2-2.4-4.1-3.2-6C174.5,108.4,174,106.7,173.8,105.2z M165.3,122.7
	c-0.1,0.5-0.3,1-0.5,1.6c0,0.1,0,0.1,0,0c-0.5-1.4-0.7-2.8-0.6-4.2c0-0.7-0.1-1.3,0.1-2.2c0-0.1,0.3-1.8,0.3-2c0,0.2,0,0.5,0,0.7
	c0-0.2,0.4-2.4,0.8-4.7c0.1,0,0.2,0.1,0.3,0.1c0.1,0.2,0,1.6,0,2.8c0,0.5,0.1,1,0.1,1.3C166,117.7,165.9,119.9,165.3,122.7z
	 M157.8,124.6c-1.6,1.2-4.3,5.3-4.3,5.4c0-0.1-0.2-1.1-0.2-1.1c0.8-1.5,2.9-4,4.3-5.6c2.4-2.5,3-4.1,4.2-6.4l0.7-1.3
	c0,1.6,0,3.4,0,3.9c0.1,1.7,0.6,3.7,1.7,5.9c0,0,0,0,0,0c0,0,0,0,0,0c-1.1,1.7-2.8,3.4-5.2,5.2c-2.6,1.6-4.2,2.6-4.9,3.1
	c1.5-2.4,3-5.1,4.6-8.1c-0.1-0.3,0.9-1.6,0.9-1.7L157.8,124.6z M146.2,139.5c0.3,0.3-1.6-1-2.8-1.6c-0.1,0-0.1,0,0,0
	c0.9-0.5,1.7-1,2.5-1.4v0C146,137.3,146.1,138.3,146.2,139.5z M146.1,142.1c-1.6,1.5-3.5,2.8-5.6,3.8c0.6-1.5,1.2-3.1,1.6-4.9
	C142.1,140.9,146.2,142,146.1,142.1z M125.2,149.1c0.3-0.1,0.5-0.1,0.8-0.2l0,0c0,0.2-0.1,1.1-0.2,1.1c-0.1,0-0.5,0.1-0.5,0.1
	C125.2,149.6,125.5,149.3,125.2,149.1z M125.7,155.1c0.3-0.5,0.5-1.1,0.7-1.7h0c0.3,0,1.1,0.1,1.1,0.2c-0.3,0.4-0.6,0.9-0.8,1
	C126.5,154.8,126.1,155,125.7,155.1c-0.1,0-0.2,0-0.3,0.1C125.5,155.2,125.6,155.1,125.7,155.1z M126.6,146.8c-0.1,0.1-1,0.8-1.4,1
	c-0.6,0.3-1.3,0.5-2,0.7c1.5-2.9,3-5.5,4.5-7.6c0.2,1.3,0.3,2.6,0.2,4C127.2,145.5,126.8,146.2,126.6,146.8z M123.1,155.4
	c-0.9-0.2-1.7-0.3-1.8-0.3c0-0.3,0.1-0.6,0.1-1c0-0.3,0.1-0.6,0.1-0.9l0,0c0.1,0,0.1-0.1,0.2-0.1c0,0,0,0,0,0
	c0.9,0.1,1.7,0.2,2.7,0.3c0.1,0,0.1,0,0.1,0h0c-0.4,0.6-0.8,1.3-1.2,1.9C123.4,155.3,123.3,155.4,123.1,155.4z M115.4,153.5
	L115.4,153.5c-0.3-0.2-0.6-0.3-0.9-0.4c-0.2-0.1-0.4-0.2-0.5-0.3c1.2,0,2.7,0,4.3,0.1l0,0c-0.2,0.1-0.4,0.2-0.6,0.3c0,0,0,0-0.1,0
	c0,0,0,0,0.1,0C116.9,153.4,116.1,153.4,115.4,153.5z M105.6,151.8c0.1,0.3,0.1,0.6,0,1l0,0c-1.3,1.2-2.4,2.2-3.5,3
	c-0.7,0.5-1.4,0.9-2.2,1.2c-0.4-0.3-0.7-0.5-1-0.8c-0.5-0.4-1.1-0.9-1.6-1.5c3.3-1.4,6.9-3.2,10.9-5.5c-0.1,0-0.1,0,0,0
	c0.3,0.1,1.2,0.3,1.3,0.3c-0.2,0-1.8,1.1-3,2.5c0,0-0.1,0.1-0.1,0.1c0,0,0.1-0.1,0.1-0.1C105.9,151.9,105.6,151.8,105.6,151.8z
	 M91.7,156.5c1.2-0.3,2.4-0.6,3.7-1.1c0.8,0.8,2.5,2.3,2.4,2.4l0,0l0,0C96.1,157.4,94.1,157,91.7,156.5z M97.3,159.5L97.3,159.5
	L97.3,159.5L97.3,159.5z M29.4,72.8c-0.5,1-1,2-1.4,2.8c-0.1-0.2-0.1-0.4-0.2-0.5c-0.1-0.5-0.2-0.9-0.3-1.4c0.2-0.1,0.4-0.3,0.6-0.6
	c-0.3-0.2-0.6-0.4-0.9-0.6c-0.3-1.4-0.6-2.7-1-4c0-0.1-0.1-0.3-0.1-0.4c0.2-0.3,0.4-0.5,0.6-0.8c0.3-0.4,0-0.1,0.3-0.4
	c-0.1,3,0.2,4.7,1.4,5c0.5,0.1,1.8-0.7,1.8-0.8c0.1-0.4,0.2-0.7,0.2-0.9c0,0,0.2-0.1,0.4-0.1C30.4,70.9,29.9,71.8,29.4,72.8z
	 M29.8,77.8c0,0.1-1.3,1.3-1.5,1.5c0.2-0.4,1.4-3.1,1.7-3.5C30,76,29.9,77.5,29.8,77.8z M27.4,89.2L27.4,89.2c0,1.1,0,2.2,0,3.3
	c0,0.1,0,0.6,0.1,1.1c-1-1.5-4.3-3.8-3.9-5.7c0.1-0.8,0.9-4.4,1.3-5.2C24.4,85.3,25.2,87.4,27.4,89.2z M27.4,86.9
	C27.4,86.9,27.4,87.4,27.4,86.9c-0.8-1.3-1.4-2.5-1.2-3.8c0,0,0.3,0,0.3,0c0.4,0.6,0.7,1.3,1,2l0,0L27.4,86.9z M39.3,42.5L39.3,42.5
	c0.4-0.7,0.8-1.3,1.2-1.9c0.9,0,2,0.1,3,0.2c0.7,0.1,1.5,0.2,2.2,0.3c0.9,0.1,1.8,0.2,2.7,0.3c0,0-2.8,2.9-4.2,4.6
	c-3.5,4.3-6.1,9.1-8,14.3c0,0.1-0.1,0.2-0.1,0.3c-0.3,0.6-0.7,1.3-1,2.1c-0.1,0.3-0.3,0.6-0.4,0.9c-0.2,0.3-0.3,0.7-0.5,1
	c0,0-2.7-2.4-3.1-2.8c0.5-0.5,1-1.2,1.4-1.6l0,0c3.5-4,5.3-6,5.3-6c0-0.4,0-0.6-0.1-0.7c-0.3-0.1-0.4-0.2-0.6-0.3
	c-2.1,1.4-4.3,3.4-6.6,5.9c-0.2,0.2-0.3,0.4-0.5,0.6l0,0l0,0c-0.1,0.1-0.3,0.4-0.3,0.3c0-0.1,0-0.2,0.1-0.4l0,0c0-0.1,0-0.1,0-0.2
	c0.5-2.4,3.5-7.7,8.8-16C39,42.9,39.1,42.7,39.3,42.5L39.3,42.5z M78,33.1c-0.8,0.3-0.9,0.4-1.5,0.6c-0.6,0.3-1.2,0.6-1.8,0.9h0
	c-0.2,0-0.5,0-0.7,0c0.9-0.6,1.7-1,2.7-1.5C77.3,33.1,77.5,33.2,78,33.1z M77.6,32.6C77.7,32.6,77.7,32.6,77.6,32.6L77.6,32.6z
	 M116,30.3c2.5,0.4,4.8,0.8,6.9,0.9c1.2,0.7,2.3,1.3,3.3,1.8c2.1,1.2,3.5,1.9,4.3,2.3c-0.8-0.3-1.6-0.6-2.4-0.7
	c-0.1,0-0.2,0-0.3-0.1l0,0c-1.2-0.7-2.5-1.2-3.8-1.5c-6.2-1.3-11-1.7-14.5-1c-4.3-1-6.4-1.4-6.4-1.3c-0.4,0-0.8,0-1.2,0
	c1.3-0.6,2-0.9,3.2-1.4l1.5,0c0.8,0.1,1.4,0,2,0l2.5,0.5C112.5,29.8,114.2,30,116,30.3z M113,28.2c0.1-0.1,0.2-0.2,0.2-0.3
	c0.5-0.1,2.2,0.1,5.2,0.8c0.3,0.2,0.7,0.4,1,0.6c-0.9-0.2-1.7-0.4-2.6-0.6C116.5,28.5,115.2,28.4,113,28.2z M142.8,47.7
	c0.8,1.1,1.5,2.2,2,3.4c0.4,0.7-3.2-3-4.8-3.4c-0.4,0-0.7,0.1-0.9,0l-0.2,0.8c-0.3-0.2-0.5-0.4-0.8-0.6c-0.4-0.4-0.9-0.8-1.3-1.2
	c0-0.1,0-0.1-0.1-0.2c-1.3-3.2-2.8-5.8-4.5-7.8c3.6,2.2,6.5,4.6,8.7,6.9l0,0h0C141.7,46.3,142.2,47,142.8,47.7z M143.5,55.2
	c0.4,0.1,2.1,0.4,2.6,1.3l0.4,1.8c0,0.1,0,0.2,0,0.4c0,0.4,0,0.8,0,1.3c0,0.3,0,0.5,0,0.8C146.6,60.6,145,57.1,143.5,55.2z
	 M144.9,64.2L144.9,64.2C144.9,64.2,144.9,64.2,144.9,64.2C144.9,64.2,144.9,64.2,144.9,64.2z M132.9,141.7
	c-1.1,0.4-2.1,0.9-2.9,1.4c0.1-0.9,0.1-1.8,0.1-2.6c1.4-0.3,3-0.7,4.6-1.3c0.4-0.2,1.2-1,1.5-1.1c-0.5,0.2,0.9,0.8,1.3,0.9
	c-0.1,0.2-0.2,0.3-0.3,0.5c0,0,0,0,0,0c0,0,0,0,0,0C135.5,140.4,134,141.2,132.9,141.7z M129.8,145.9c0.2-0.5,1.6-1.3,2.6-1.9
	c0.4-0.2,1.5-0.8,2.9-1.5c-0.3,0.3-0.5,0.6-0.7,0.9c-1.4,1.8-3.3,3.5-5.6,5l0,0l-0.4-0.2c0.1-0.3,0.2-0.7,0.3-1
	C128.6,147.5,129.7,146.4,129.8,145.9z M136.8,133.6C136.8,133.6,136.8,133.6,136.8,133.6c-0.6,0.4-1.2,0.7-2,0.9
	c-0.5-0.2-1-0.3-1.6-0.4h0l0,0c1.3-0.2,2.5-1.2,3.6-1.5C136.8,132.7,136.8,133.5,136.8,133.6z M135.5,131.6L135.5,131.6
	c0.5-0.6,1.7-2.1,1.4-1.8c0.4-0.5,0.8-1,1.3-1.5l0,0c0,0.1,0.9,1,1.4,1.3C138.6,130.4,137.3,131,135.5,131.6z M138.3,124
	c-0.1,0.2-0.3,0.4-0.5,0.6c-0.1,0.1-0.2,0.3-0.3,0.4l0,0l0,0c-0.2-0.2-0.4-0.3-0.4-0.3c-0.3-0.1-0.6,0.1-1,0.4
	c0.1,0.3,0.3,0.7,0.5,1.1c-1.2,1.4-2.2,2.7-3.2,3.9c-0.7,0.6-1.5,1.1-2.3,1.7c-0.7,0.5-2.1,1.7-3,1.8c-0.3-0.3-2.8-1.3-3.1-1.5
	c-0.1-0.5,0-1.2,0.1-1.9c0.5-2.4,1.5-4.6,3.1-6.7c1,0,1.9,0,2.8-0.1c-0.1-0.1,2.6,1.5,4.2,1.9c0.5,0.1,0.8,0.1,0.8-0.1l0.1-0.4
	l0.6-2.8l3.3-3.3C140.6,118.6,138.7,123,138.3,124z M127.1,139.1c-0.1,0.1-0.2,0.3-0.3,0.5c-0.4,0-0.7-0.1-1.1-0.1l0,0
	c0.3-0.3,0.6-0.5,0.9-0.7l0,0c0.1,0,0.3,0.1,0.4,0.1C127,138.9,127,139,127.1,139.1z M125.4,137.5
	C125.4,137.5,125.3,137.5,125.4,137.5C125.3,137.5,125.4,137.5,125.4,137.5C125.4,137.5,125.4,137.5,125.4,137.5z M107.7,143.2
	c-3-0.6-6.2-2.3-9.8-5.1c1.8,0,4.3,0,7.4,0.2c0.4,0.1,1.4,0.4,1.4,0.5c0.8,2,2.1,3.6,3.2,4.9C109.2,143.5,108.4,143.3,107.7,143.2z
	 M109,147.1c-0.1,0-0.1,0.1-0.1,0.1c-0.2,0.1-0.3,0.1-0.4,0.2c-0.3-0.1-0.6-0.2-0.9-0.2c0.4,0,1-0.6,1.4-0.6
	C109.4,146.6,109.3,147,109,147.1z M82.2,143.9c-0.6,0.2-0.9,0.2-0.9,0.2c0.1,0.8-0.1,1.5-0.8,2c-0.5,0.4-1.3,0.7-2.4,0.7l0,0
	c-1.1-0.7-2.2-1.5-3.4-2.3c0.5-0.3,0.9-0.7,1.3-1.1c0.8-1.3,1.5-2.1,2-2.6l0,0c2.8,1.3,8.8,3.3,8.8,3.3c0.9,1.2,2.3,3.4,4.3,6.4
	c0,0.1,0.1,0.1,0.2,0.2c0.1,0.1,0.2,0.2,0.3,0.2c-0.1-0.1-0.2-0.2-0.3-0.2c-0.2,0.1-0.5,0.3-1.1,0.7c-0.5,0.3-1.4,0.4-2.7,0.1
	c-2-0.5-4.5-1.6-7.5-3.4l0,0c0.1-0.1,0.2-0.1,0.4-0.2c1.3-0.7,2.1-1.6,2.3-2.6C83,144.6,82.8,144.1,82.2,143.9z M70.2,145.1
	c-0.3-0.2-0.7-1-1-1.2c0.1,0,0.3,0.1,0.4,0.1c0.2,0,0.4,0.1,0.6,0.1c-0.2,0-0.4-0.1-0.6-0.1c0.2,0.2,0.4,0.3,0.7,0.5
	C70.2,144.6,70.4,145.2,70.2,145.1z M69.2,140.4c-0.2-0.2,0.7-0.8,0.8-1.3c-0.1-0.1-0.3-0.5-0.7-1.1c-0.4,0.1-0.7,0.3-1.1,0.4
	c0.2-0.8,0.5-1.6,0.8-2.5c2.3,1.6,4.7,3,7.3,4.3c-0.5,0.4-0.9,0.8-1.4,1.3c-0.7,0.7-1.4,1.4-2.1,1.9l0,0c-0.4-0.3-0.9-0.7-1.3-1
	C70.8,141.6,70,141,69.2,140.4z M65.5,122.3C65.5,122.3,65.5,122.3,65.5,122.3c-0.8-1.3-1.8-2.7-2.7-4.3c0.7,0.2,1.4,0.4,2.2,0.6
	c0.5,0.1,1,0.2,1.4,0.3c0.2,0,0.2,0,0,0c1.6,1.7,4.6,4.1,4.4,4.4c-0.3,0.5-0.5,0.8-0.5,1.2c-0.1,0.4-0.1,0.7,0,0.9
	c0.1,0.6,0.5,1,1.3,1.1c0.4,0.1,1-0.2,1.8-0.8l0,0c0.4,0.4,0.8,0.9,1.2,1.3c3.3,3.8,6.8,7,10.3,9.7c-0.4,0.5-0.8,1-1.1,1.4l0,0
	c-3.2-1.3-6.1-2.8-8.9-4.4l1.2,0.3c0.4,0.4,0.9,0.6,1.3,0.7c0.3,0,0.8-0.2,1.4-0.8c-2.2-2.6-5-4.3-8.6-5.3c-0.1-0.1-0.2-0.2-0.3-0.3
	c-0.1-0.1-0.1-0.2-0.2-0.3c0.1,0.1,0.1,0.2,0.2,0.3C68.6,126.1,67.2,124.1,65.5,122.3C65.5,122.3,65.5,122.3,65.5,122.3z
	 M61.7,137.9C61.6,137.9,61.6,137.9,61.7,137.9c0.1,0-0.8-0.8-1.2-1.2c-1.8-0.7-3.2-1.7-4.8-2.5c0,0,0.1,0.1,0.1,0.1
	c0,0-0.1-0.1-0.1-0.1c-0.2-0.3-0.4-0.5-0.6-0.8c1.1,0.7,4,1.6,4.2,1.6c0.5,0.5,2.3,2.2,2.8,2.7c0.4,0.4,0.9,0.8,1.3,1.2l0,0
	c0.1,0.2,0.2,0.4,0.3,0.6h0c-0.1,0-0.2,0-0.3,0.1C62.9,138.8,62.3,138.3,61.7,137.9z M62.2,142.9c-0.3-0.1-1.2-0.5-1.6-0.7
	c0.2,0,0.5,0,0.8,0c0,0,0,0,0.1,0C61.6,142.4,62.1,142.8,62.2,142.9z M60.5,137.8c0,0.4-1.4,0.4-1.6,0c-0.1-0.1-0.4-0.6-0.5-0.7
	C58.5,137.2,60.5,137.1,60.5,137.8z M45.9,134.9L45.9,134.9c-2.1-1.6-4-3.3-5.6-5.2c0.2-0.7,0.1-2.3,0.4-3c0.1-0.4,1.4-0.4,1.4-0.4
	l0,0c0.9,1.3,3.1,4,3.1,4.2C44.9,131.5,45.2,133.1,45.9,134.9z M37.2,105.4L37.2,105.4c1.3,3.4,2.7,6.9,4.4,10.3
	c0.6,1.2,1.2,2.3,1.8,3.4l0,0c0.2,0.3,0.3,0.5,0.4,0.8c-1.2-0.6-2.4-1.1-3.7-1.7c-0.2-0.1-0.3-0.1-0.4-0.2c0,0,0,0,0,0c0,0,0,0,0,0
	C38.2,114.2,37.3,110,37.2,105.4z M35.2,99.3L35.2,99.3c-0.2-0.1-0.4-0.3-0.6-0.4c0-0.4,0.1-0.8,0.2-1.1c0,0.1,0.1,0.3,0.2,0.6
	l0.1,0l-0.1,0C35,98.7,35.2,99,35.2,99.3z M35.1,97.6c-0.1-0.3-0.1-0.5-0.2-0.6l0,0c0.1-1.1,0.2-1.6,0.1-1.6
	c-0.2,0.1-0.4,0.1-0.5,0.1l0.1-0.1c-0.2-0.9-0.5-2.3-0.5-2.3c0.6,0.3,1.3,0.7,1.9,1c0.1,0.8,0.1,1.2,0.2,2c-0.2,1.1-0.3,2.2-0.4,3.3
	c-0.2-0.4-0.3-0.6-0.4-0.9l0,0C35.3,98,35.2,97.7,35.1,97.6z M36,93.3l-1.9-0.9c-0.2-2.3,0-4.8,0.6-7.4c0.2-1.3,0.4-2.5,0.5-3.6
	c0.1,0.4,0.3,0.8,0.5,1.2c0.4,1,0.9,1.9,1.4,2.8c-0.2,0.6-0.3,1.2-0.4,1.8C36.2,89.3,36,91.3,36,93.3z M35.1,79.9c0,0,0.1,0,0.1,0v0
	C35.2,79.9,35.2,79.9,35.1,79.9z M36,70.5l0.3-2.8c0.4-0.9,1.1-2.2,1.7-3.2c0.5-0.9,1-1.7,1.5-2.6c-0.1,0.9-0.3,2.1-0.5,3.5
	c0,0.1-0.1,0.3-0.1,0.4c-0.2,0.9-0.6,4.6-0.7,6.3l-0.1,0c0,0,0.3,0.6-0.1,1.1c-0.5,0.5-1.3,0.9-1.7,1.4c-0.2,0.3-0.5,0.7-0.8,1.1
	C35.7,74.5,36.4,71.2,36,70.5z M43.2,50.9L43.2,50.9c0-0.3,1.3-0.9,1.8-1.3c0,0,2.5-1.1,2.5-1.1c-1,1.6-3.3,3.7-4.1,4.9v0
	C43.3,52.6,43.2,50.9,43.2,50.9z M44.7,55c0.6-0.8,1.3-1.5,2-2.2c1.3-1.4,2.5-2.5,3.5-3.4c0.2-0.2,0.4-0.4,0.6-0.5
	c0,0.2,0,0.4,0,0.6c-0.3,0.2-0.5,0.4-0.8,0.7l0,0c-1,0.9-2.2,2-3.5,3.4c-0.7,0.7-1.4,1.5-2,2.2c-0.2,1.1-0.3,2.8-0.3,5
	c0,0.4,0,0.8,0,1.3l0,0c-0.2,0.1-0.4,0.2-0.5,0.4l0.4,0.1c-1.2,2-2.7,4.9-4.1,7.3c0.5-2,0.8-3.6,1.1-4.9c0.1-0.4,0.2-0.7,0.2-1
	c0.4-2,0.6-3.8,0.5-5.2C42.7,57.4,43.6,56.2,44.7,55z M53.2,51c-1.5,3.2-2.8,7.2-3.8,11.9c-0.1,0.6-0.3,1.2-0.3,1.8
	c0-0.4-0.1-0.8-0.1-1.2l-0.4-0.6c-0.1-0.7,0.8-3.4,1.1-4.2c0.5-1.6,1.1-4.1,1.9-7.6c0,0,0,0,0,0c0,0,0,0,0,0
	C52,51.1,52.6,51,53.2,51z M66.3,41.2c-0.4,0.3-0.9,0.7-1.3,1c-2.3,1.8-4.4,3.8-6.2,6l0,0c-0.1,0-0.2,0.1-0.2,0.1
	c0.2-0.3,0.6-0.7,1.2-1.3l0,0c0.9-1,2.2-2.5,4-4.4c0.1-0.1,0.2-0.4,0.5-0.8c0,0,0,0,0,0c0,0,0,0,0,0C65,41.5,65.7,41.3,66.3,41.2z
	 M67.1,49.2c0.1,0,0.1-0.2,0.4-0.6c-0.2,1.2,0.3,2.8-0.1,2.9c-0.7,0.2-1.2,0.4-1.7,0.7l0,0c-0.7-0.3-1.1-0.4-1.1-0.4
	c-0.9-0.2-2.5,0.2-2.5,0.7c0,0,1.4,0.5,1.6,0.7c-2.1,1.2-3.6,2.7-4.4,4.6l0,0c-0.4-0.1-0.7-0.2-1-0.3c-0.4-0.1-0.7,0-0.9,0.4l0,0
	c-0.2-0.5-0.4-0.9-0.5-1.4v0c0.7-0.8,1.8-2,3.2-3.7c0.5-0.7,1-1.3,1.5-1.8l0,0c1.2-1.1,2.5-2.1,3.8-2.9l0,0c0.5-0.3,1-0.6,1.5-1
	c-0.1,0.2-0.2,0.5-0.2,0.7C66.3,48.5,66.5,48.9,67.1,49.2z M71.2,46.6C74,46,77.3,46,81.3,46.4c-0.6,0.9-1,1.6-1.4,2.2l0,0
	c-2.4,0.5-4.6,0.9-6.6,1.4l0,0c0,0,0,0,0,0c-1.5,0.3-2.9,0.7-4,1.1l0.5-5.4c0.3-0.1,0.6-0.2,0.8-0.3c0.2-0.1,0.4-0.1,0.6-0.2
	c-0.2,0.1-0.4,0.1-0.6,0.2c-0.1,0-0.1,0.1-0.1,0.2C70.4,45.9,70.7,46.2,71.2,46.6z M82.7,55.5c0.1,0,0.3,0.1,0.7,0.1
	c-1.3,0.5-2.5,0.8-3.6,0.9c-0.1,0-0.1,0-0.2,0c0.1,0,0.1,0,0.2,0c0-0.2,0-0.4,0.1-0.5l0,0c0.1,0,0.1,0,0.1-0.1
	c0.4-0.4,0.8-0.8,1.2-1.1c0.1-0.1,0.1-0.1,0.2-0.2c-0.1,0.1-0.1,0.1-0.2,0.2C81.4,55,81.9,55.3,82.7,55.5z M82.4,47.8
	c0.2-0.3,0.5-0.7,0.8-1.1c0,0,0.1,0,0.1,0C82.9,47.1,82.6,47.6,82.4,47.8z M114.5,35.2c0-0.1,0.1-0.3,0.1-0.3c0-0.1,1.4,0.3,2.2,0.4
	c2.9,0.6,6.5,2.6,10.6,5.9c-1.9-1.1-3.7-1.8-5.3-2.1c-2-0.4-4.1-0.6-6.2-0.3l0,0c-1.2-0.4-2.4-0.7-3.6-1c-3.2-0.7-5.8-0.8-7.8-0.3
	c0.3-0.6,0.5-1.1,0.8-1.5l0,0c0.9-0.4,2.3-0.5,4.3-0.2C112.7,36.1,114.4,35.9,114.5,35.2z M113.9,34.2L113.9,34.2
	C113.9,34.2,113.9,34.2,113.9,34.2C113.9,34.2,113.9,34.2,113.9,34.2z M137.9,65.7c0.8,0.8,0,1.6,0,1.6c-0.1-0.2-1.3-1.7-1.4-1.9
	c0.2,0,0.4,0,0.5,0c0.2-0.4,0.8-0.5,1.1-0.6C137.5,65,137.9,65.7,137.9,65.7z M137.3,89.8c-0.4-0.5-0.9-3-0.9-3
	c-0.1-0.6-0.4-2.2-0.7-3.9c0.3,0.1,0.7,0.1,0.7,0.2c0,0,0,0,0,0c0.6,1.1,1.2,2.3,1.7,3.4l0,0C138,87.1,137.4,89.6,137.3,89.8z
	 M137.6,103.5l1-1.5l-0.4,4L137.6,103.5l-0.2,0.3l0.1-0.4L137.6,103.5z M136.6,104.7C136.6,104.7,136.6,104.8,136.6,104.7
	c0,0.1,0.2,0.7,0.2,0.6L136.6,104.7L136.6,104.7c0-0.3,0.1-0.5,0.1-0.6c0.1,1.7,0.6,2.9,0.6,5c0.1,0.6-0.3,1.8-0.2,2.3h0
	c0.1,0.2,0.1,0.4,0.2,0.5l0,0c-0.4,0.5-0.9,1-1.4,1.5l0,0C135.9,110.8,136.1,107.9,136.6,104.7C136.6,104.8,136.6,104.7,136.6,104.7
	z M138.1,81.7c-0.9-1.6-2.9-5.5-3-5.6c-0.1-0.1,2.1,0.4,2.9,0.6c0.2,0.6,0.5,2.2,0.6,3c0.1,0.5,0.1,1.2,0.1,1.7
	C138.6,81.5,138.4,81.6,138.1,81.7z M119.3,119.7c0.2,0.1-0.1,1.3,0,1.3c-1.4-0.2-5-0.7-4.8-0.8c1.8-1.3,4.4-3,5.9-4.5l0,0
	c0.2,1.3-0.9,3-1,3.4C119.3,119.5,119.3,119.6,119.3,119.7z M119,121.2C119.1,121.2,119.1,121.2,119,121.2
	C119,121.3,119,121.3,119,121.2z M95.3,131.6c0,0-0.2-0.8-0.4-1.3h0c0-0.1-0.1-0.3-0.1-0.5c0.6-0.3,1.1-0.5,1.8-0.7l0,0
	c0.9,0.1,1.8,0,2.7-0.1l0,0c1.2,1.5,2.8,3.7,4.9,6.5c0,0-1.6-0.3-2.5-0.4l0,0C99.6,134.3,97.5,133.1,95.3,131.6z M99.1,136.4
	c-0.1,0-0.2,0-0.3,0c-0.7,0-1.4,0-2,0l0,0c0-0.1-0.1-0.3-0.1-0.4c0.6,0.1,1.3,0.2,2.1,0.3C98.9,136.4,99,136.4,99.1,136.4z
	 M94.7,129.5c-0.1-0.2-0.1-0.3-0.1-0.5c0-0.2,0.5,0.1,0.9,0.1l0,0C95.2,129.2,95,129.3,94.7,129.5C94.7,129.6,94.7,129.6,94.7,129.5
	z M93,132.8c0.4,0.1,0.7,0.1,0.8,0.1c0.1,0.5,0.3,1.2,0.5,1.9c0,0,0,0.1,0,0.2c-0.9-0.9-1.7-1.7-2.5-2.5
	C92.2,132.6,92.6,132.7,93,132.8z M92.3,129.4c0.1-0.2,0.3-0.4,0.5-0.6c0,0,0.3,1.2,0.3,1.2C93.2,130.5,92.6,129.6,92.3,129.4z
	 M93.4,121.3c-0.1,0.3-0.5,1-0.5,1s-0.8-2.2-1.2-3.3c0.1-0.1,0.3-0.7,0.5-0.7c0,0,0.5-0.2,0.6-0.6c0.5,0.3,1.2,0.5,1.6,1
	C94.3,119,93.6,120.7,93.4,121.3z M82.7,131.2l0,0.6c-1.4-1.1-2.8-2.9-4.1-4c-0.1,0,0.8-0.2,0.7-0.2c0.9,1.1,3.9,2.1,3.7,2.6
	C82.9,130.5,82.6,131,82.7,131.2z M62.1,134.6c-0.2-0.2-1.1-0.9-1.2-0.9c-1.9-1.5-5.1-4-5.5-4.4l0,0l6.1,1.4h0
	C61.6,131.4,61.9,134,62.1,134.6z M50.6,100.3c-0.4-0.6-0.2-0.6-0.9-1.1c0,0-0.8-1.8-0.8-2.4c0.7,0.4,1.4,0.7,2.1,1.1
	c0,0.2-0.1,0.4-0.1,0.6C50.7,99,50.7,99.6,50.6,100.3C50.7,100.6,50.7,100.6,50.6,100.3z M44.4,91.9l-1.9-1.5c0,0,0,0,0-0.1
	c-0.2-0.8-0.3-1.5-0.4-2.3c-0.1-1.5-0.3-2.9-0.4-4.2l1.8-3.4c1.3-2.3,2.9-4.5,4.6-6.7c0.1,0.8,0.2,1.7,0.3,2.5
	c-0.4,0.3-0.7,0.6-1,0.9c-0.9,1-1.6,2.3-2,3.8c-0.1,0.1-0.3,1.2-0.7,3.2c0,0-0.5,2.6-0.6,3.4C44.2,88,44.3,90,44.4,91.9z M45.6,71.3
	c0.7-2.1,1.3-4,1.8-5.7c0,0.4,0.1,0.8,0.1,1.2c0.1,1.3,0.2,2.6,0.4,3.9v0c-1.1,1.1-2,2-2.6,2.7c-0.6,0.6-1,1.3-1.5,2c0,0,0,0,0,0.1
	c0,0,0,0,0-0.1C44.4,74.1,45,72.7,45.6,71.3z M44.1,62L44.1,62C44.1,62,44.1,62,44.1,62C44.1,62,44.1,62,44.1,62z M45.7,63.6
	l1.2-5.3c0,0.6,0.1,1.3,0.1,2v0C46.6,61.3,46.2,62.4,45.7,63.6z M48.1,53.8L48.1,53.8c0.4-1,0.9-1.7,1.4-2c0,0,0,0,0.1,0
	c-0.4,1.8-0.9,3.4-1.3,4.7v0C48.2,55.5,48.2,54.6,48.1,53.8z M47.9,86.3c0.5-2.3,0.9-3.8,1.1-4.5c0.1-0.2,0.2-0.4,0.3-0.6
	c0.1,0.5,0.2,0.9,0.2,1.4c0,0-0.1,2.1-0.2,3.1c-0.1,0.7-0.5,2.5-1.1,5.4c-0.2,0.7-0.3,1.4-0.5,2c-0.1-0.6-0.1-1.1-0.1-1.6
	C47.5,89.5,47.6,87.8,47.9,86.3z M49.1,95.3c0.2-1.1,0.5-2.7,1.1-4.6c0.2-0.8,0.4-1.4,0.5-2c0.2,1.1,0.5,2.2,0.7,3.3l0,0
	c-1,0.8-1.5,1.3-1.5,1.4c-0.1,0.5,0.1,0.8,0.6,1.1c0.5-0.2,0.9-0.4,1.3-0.7c-0.1-0.3,0.1,0.2,0.1,0.3l0,0c-0.2,0.8-0.4,1.5-0.6,2.4
	C50.5,96.1,49.8,95.7,49.1,95.3z M51,75.5c-0.1-1.3-0.4-2.4-0.6-3.4c-0.1-0.3-0.1-0.5-0.2-0.7c0.2-0.2,0.4-0.5,0.7-0.7
	C50.9,70.4,50.9,73.7,51,75.5z M63.6,59.8c1.1-0.8,1.9-1.6,2.6-2.3v1.8c-0.1,0.1-0.4,0.4-0.5,0.5c-0.2,0.2-0.7,0.6-0.7,0.7
	c0,0.1,0,0.1,0,0C64.5,60.3,64,60,63.6,59.8z M63.8,70.3C63.8,70.2,63.8,70.2,63.8,70.3c-0.4-0.7-0.7-1.3-1-1.9l0,0
	c0,0,0-0.1,0.1-0.1l0,0c0.3-0.1,0.8-0.1,1.2-0.1C63.9,68.9,63.8,69.5,63.8,70.3C63.8,70.2,63.8,70.2,63.8,70.3z M55.9,84.5
	c-0.6,0.2-1.1,1.9-1.1,1.9c-0.1-0.3-0.7-2.8-0.7-2.8c-0.3-1.3-0.7-3.8-0.7-3.8c0.5-0.3,0.8-0.4,1.5-0.7c0,0.2-0.1,0.4-0.1,0.6
	C54.8,79.7,55.5,82.1,55.9,84.5z M56.3,88.9L56.3,88.9c0.8,2.7,3,5.8,4.5,7.3c0,0,1.5,1.7,2.4,2.8c0,0.2,0,0.3-0.1,0.5
	c-0.1,0.6-0.1,1.3-0.1,2l-4.7-1.5c0-0.1-0.1-0.2-0.1-0.4c0-0.1-0.4-1.3-0.4-1.4c-0.6-1.8-1.2-3.6-1.4-4.5c-0.3-1.3-0.7-2.4-1-3.6
	l0,0C55.9,89.8,56.1,89.3,56.3,88.9z M61.2,75.9l1-0.7c0,0.6-0.6,1.7-0.8,2.3c0,0-2.4,3.1-3.3,4.1c0-0.5,0-0.9,0.1-1.3
	c0.2-1.2,0.5-2.2,0.7-3.2C59.9,76.6,60.1,76.4,61.2,75.9z M60.7,72.1c0.1-0.4,0.3-0.8,0.5-1.1c0.2-0.4,0.6-1.1,0.6-1.1
	c0.2,0.6,0.4,1.1,0.6,1.6c0,0,0,0,0,0c-0.2,0.1-0.4,0.2-0.4,0.3C61.4,71.9,61.2,71.8,60.7,72.1z M60.8,83.6
	C60.8,83.7,60.8,83.7,60.8,83.6C60.8,83.7,60.8,83.7,60.8,83.6c-0.3-0.1-0.6-0.1-1-0.2c0.3-0.4,0.6-0.8,1-1.2
	C60.8,82.8,60.8,83.2,60.8,83.6z M61.6,101.6l-2.4,0.5c-0.2-0.4-0.3-0.8-0.4-1.2L61.6,101.6z M61.9,103.2c0.5,0,1,0,1.3,0
	c0,0,0,0,0,0l0,0c0,0,0,0,0,0c0,0.4,0,0.6,0,0.7c0.3,2.4,0.8,4.6,1.6,6.8c-1-1.2-1.8-1.6-2.2-2.2l0,0c-0.4-0.7-0.8-1.4-1.2-2l0,0
	c-0.4-0.7-1-1.9-1.7-3.1C60.2,103.4,60.9,103.3,61.9,103.2z M63.7,97.4L62.8,96c0,0-0.1-1.4,0.1-1.6c0.1-0.2-0.8-2-0.8-2
	c0-0.1-0.1-0.1-0.1-0.2c-0.6-1.2-2.7-6-3-7c0,0,1.6,0.4,2.4,0.6l0,0c0.2,0.4,0.4,0.7,0.7,0.9c0.2,1.6,0.6,3.1,1.2,4.6
	c0.4,1.2,1.2,2.5,1.8,3.3C64.3,95.9,64,96.7,63.7,97.4z M63.3,81.2c-0.2,0.2-0.3,0.4-0.4,0.6c-0.1-0.6-0.1-1.2,0-1.8l0,0
	c0.1-0.2,0.3-0.3,0.4-0.4C63.3,80.2,63.2,80.7,63.3,81.2L63.3,81.2z M65.2,77.5c0.1,0.2,0.4,1.1,0.5,1.3c0.1,0.2-0.6,0.4-0.7,0.5
	C65,79.1,65,76.9,65.2,77.5z M65.2,81.7L65.2,81.7c0.3-0.4,0.7-0.7,1.1-1.2c-0.1-0.1-0.1-0.1,0,0c0.4,0.8,0.9,1.6,1.4,2.3
	c0,0.1,0,0.2-0.1,0.3c-0.1,0.7-0.2,1.4-0.2,2.2v0c-0.4-0.1-0.8-0.2-1.2-0.4c-0.5-0.8-0.9-1.8-1.1-2.9C65.2,81.9,65.2,81.8,65.2,81.7
	z M66.1,74.4c0-0.1-0.1-0.7-0.2-0.7l0.1-0.1c0.3-0.1,0.5-0.3,0.7-0.4C67.1,73.1,66.2,74.5,66.1,74.4z M66.3,69.2
	c0.1-0.2,0.2-0.5,0.3-0.7l0,0c0.2,0,0.4,0.1,0.5,0.1l0,0C66.8,68.8,66.5,69,66.3,69.2z M66.5,65.7c-0.1,0-0.2,0-0.3,0
	c0.1-0.8,0.2-1.4,0.3-1.9l0,0c0,0,0-0.1,0.1-0.1c0.3,0.2,0.9,0.4,0.8,0.5C67.1,64.7,66.8,65.2,66.5,65.7z M61.7,58.9
	c-0.2-0.1-1-0.5-1.2-0.6c0.2-0.2,2.5-3.2,4.5-4.3c0,0,0,0,0,0c0.5,0.2,1.1,0.4,1.8,0.7l0,0C65,56.1,63.2,57.5,61.7,58.9z M61.7,61.3
	c-0.1,0,1.2,0.5,1.8,0.9c0-0.1,0-0.1,0,0c-0.9,1-1.6,1.9-2.3,2.8c0,0-0.8-2.1-0.8-2.6C60.4,62.1,61.2,61.6,61.7,61.3z M60.5,65.8
	c-0.8,1.1-1.7,1.9-2.2,2.9c-0.2,0.3-1.8,3.1-2.4,5.2c0.2-0.1-2.3,1.1-3.3,1.5c-0.2-2-0.2-3.9-0.1-5.6c0.1-0.3,0.1-0.6,0.2-0.9
	c0.1-0.4,1.3-1.3,2.1-1.9c0.9-0.9,2.6-2.2,4.9-4.1l0.2,0.8C60,64.4,60.2,65.1,60.5,65.8z M54,93.8c0.3,1.3,0.7,2.5,1.1,3.7
	c0.1,0.3,0,0.8-0.2,0.8l0,0c-0.4-1.2-0.7-2.3-1-3.1c-0.1-0.2-0.1-0.4-0.2-0.6c-0.2-0.5-1.1-3.5-1.1-3.7c-0.5-2-1-4.2-1.4-6.4
	c-0.1-0.4,0-3.4,0-3.4c0.1,0,0.6,3.4,0.6,3.4C52.3,87.1,53.7,92.7,54,93.8z M52.5,98.9c0-0.1,0-0.2,0-0.2c0.2,0.1,0.3,0.2,0.5,0.3
	l0,0c0.3,1.3,1.1,3.7,1.1,3.7c0,0.1-0.6,0.8-1.4,1.6c-0.3,0.1-0.6,0.3-0.9,0.4l0-0.1C51.8,102.8,52.1,100.9,52.5,98.9z M53.2,108.8
	c0.5,0.2,1,0.3,1.2,0.3c0.4,0,0.9-0.3,0.9-0.5c-0.1-0.2,0.1-0.7,0.1-0.7l-1.5-1c0.3-0.7,0.6-1.4,0.9-2.1c0.9,3.1,3,8,3.5,9.2
	c-0.1,0.2-0.2,0.4-0.2,0.6c-0.8-0.5-2.4-1.5-3.6-2.8c-0.5-0.5-1-1.2-1.6-2C52.9,109.5,53,109.2,53.2,108.8z M58.4,116.3l1.5,1.3
	C59.3,117.1,58.8,116.7,58.4,116.3z M58.4,116.3c0.4,0.2,0.8,0.4,1.2,0.5c0.1,0.2,0.2,0.5,0.3,0.7L58.4,116.3z M59.3,111.4l-1.6-4.1
	l1.9,3.3c1.4,2.1,3.2,4.5,5.5,7l0,0c-0.8-0.3-1.6-0.5-2.5-0.8c-0.3-0.1-0.6-0.2-0.9-0.3C60.9,114.8,60.1,113.1,59.3,111.4z
	 M64.3,89.4c-0.6-1.6-0.8-3.1-0.8-3.1l0-0.1c0,0,0.6,0.2,0.9,0.3c0.4,0.9,0.7,1.3,1.4,2c0.4,0.3,0.7,0.4,1.1,0.6l0.6,0.2
	c-0.6,0.9-1.2,2.1-1.8,3.2C65.2,91.5,64.6,90.4,64.3,89.4z M66.4,101.4c0-0.4,0.1-0.8,0.2-1.2c0.2-0.9,0.5-1.9,0.8-2.9h0
	c1.4,1.2,3,2,4.9,2.6c0,0.1,0,0.2,0,0.3c0.2,1.2,0.4,2.3,0.7,3.4c-2-0.3-3.9-0.6-5.8-1.1c-0.1-0.1-0.2-0.1-0.2-0.1
	C66.8,102,66.6,101.7,66.4,101.4L66.4,101.4z M69.5,85.9c-0.1-0.3-0.1-0.6-0.1-0.8c0.2,0.2,0.4,0.4,0.6,0.6l0,0
	c-0.1,0.1-0.2,0.2-0.2,0.2C69.6,86,69.5,85.9,69.5,85.9C69.5,86,69.5,86,69.5,85.9z M70.1,94.3c0.3,0.5,0.9,1.6,1.8,3.2
	c0,0.1,0.1,0.2,0.1,0.3c0,0.2-2.5-1.2-3.7-2.3L68,95.4c0.2-0.5,0.2-0.5,0.6-1.5c0.2-0.4,0.4-0.8,0.6-1.2L70.1,94.3z M68.6,64.7
	c0.6,0.4,1.1,1,1.7,1.3c0.1,0.1,0.3,0.2,0.5,0.3l0,0c-0.2-0.1-2.9-0.2-2.9-0.2C68.1,65.9,68.6,64.7,68.6,64.7z M68,62.4
	c0.2-0.2,0.3-0.3,0.4-0.3c0.6-0.6,1.2-1.1,1.8-1.6l0,0c-0.6,0.8-1.7,2.3-1.7,2.3C68.5,62.7,68.2,62.5,68,62.4z M69.6,63.4L69.6,63.4
	c1.5-2.3,3.1-4.2,4.9-5.9c0,0,0.1-0.1,0.1-0.1c0.2-0.3,2.1,0.6,2.8,0.8c0.1,0,0.2,0,0.3,0.1c-0.2,1.4,0.3,3.8-0.6,4.4
	c-0.8,0.5-4.1,2.2-4.8,2.7C71.4,64.7,70.5,64,69.6,63.4z M81.1,58.2C81.3,58.1,81.3,58.2,81.1,58.2c-0.7,0.6-1.3,1.2-2,1.8
	c0.1-0.5,0.2-1,0.3-1.6C79.2,58.4,80.5,58.3,81.1,58.2z M99.6,56c0.2,0.5-3.3-0.7-5-1.1c-0.2,0-1.5-0.3-3.7-0.8
	c0.7-0.4,1.9-1.9,2.7-2.6c0.2,0,0.3,0.1,0.3,0.1l3.3,0.8l1,0.3l0,0C98.5,53.5,99,54.6,99.6,56z M99.6,59c-1.3,0.5-4.1,1.8-4,1.8
	c0-0.4-0.2-0.7-0.7-1c-0.2,0.1-0.4,0.3-0.6,0.5c-0.3-1-0.6-1.9-1-2.7C95.1,58.1,97.2,58.6,99.6,59z M104.1,71.9
	c0.4,0.1,0.7,0.2,1.1,0.2c0,0,0,0,0,0c0.1,0.2,0.9,2.7,1.1,3.8c0,0,0,0,0,0c0,0,0,0,0,0c-0.2,0.6-0.4,1.2-0.6,1.9c0,0.1,0,0.1,0,0
	c-0.1-0.1-0.3-0.1-0.4-0.1l0,0c0-0.4-0.2-0.8-0.6-1.1c-0.3,0.2-0.5,0.5-0.8,0.7l0,0c-0.8-0.2-1.7-0.4-2.4-0.5l0,0
	c-1.5-1.7-2.7-3-3.7-4l0,0l0,0c-1.3-1.4-2.2-2.1-2.5-2.1c-0.1,0-0.3-0.1-0.4,0c0-0.2,0-0.4,0-0.6c0,0,0,0,0,0
	C97.6,70.5,100.6,71.1,104.1,71.9z M101.5,69.5c0.4,0,0.8-0.1,1.2-0.1l0,0c0.1,0.1,0.2,0.2,0.3,0.4L101.5,69.5z M121.8,59l0.5,0.8
	c0,0.1,0.1,0.2,0.1,0.3l0,0c-1-0.5-2.1-1-3.2-1.2c-0.5-0.1-1-0.2-1.5-0.3c-0.1-0.7-0.6-1.1-1.3-1.3c-0.3-0.1-0.6,0-0.9,0.1
	c-0.1-0.3-0.3-0.5-0.4-0.8l6.1,1.5l0,0l0,0C121.4,58.3,121.6,58.7,121.8,59z M125,66.1L125,66.1c-0.2-0.4-0.3-0.7-0.4-1.1
	c-1.3-0.5-2.6-1.1-3.8-1.7c1.2,0.4,2.3,0.4,2.4,0.5c0.5,0,2.1,0.8,2.1,1C125.5,65.2,124.9,65.7,125,66.1z M123.9,66.2
	c-0.1,0.1-0.2,0.3-0.3,0.6c-0.5-0.4-0.9-0.9-1.5-1.3l0,0C122.7,65.7,123.3,65.9,123.9,66.2z M118.5,107.8L118.5,107.8
	c0,0.1,0.1,0.3,0.1,0.5l0,0.3c-0.1-0.1-2.2-0.3-2.2-0.2c0-0.1,1-1,1-1.1C117.5,107,118.5,107.7,118.5,107.8
	C118.5,107.7,118.5,107.9,118.5,107.8z M110.1,118.5C110.1,118.5,110.1,118.5,110.1,118.5c-0.4,0.1-0.8,0.3-1.2,0.4
	c0.5-1,1.2-1.9,1.9-2.7c0.1-0.1,0.2-0.2,0.3-0.4C110.6,117.1,110.3,118,110.1,118.5C110.1,118.5,110.1,118.5,110.1,118.5z
	 M107.1,111.8c0.1-0.3,0.1-0.5,0.2-0.8c0.3-1.4,0.5-2.9,0.7-4.2l5.7,1.5l0,0C112.2,109.9,109.9,111.1,107.1,111.8z M98.4,125.4
	c2.1,0,4.2-0.2,6.2-0.6c0,0,0,0,0,0c0,0.1,0.1,0.6,0,0.6c-0.5,0.1-2.6,0.1-5.9,0.4c-0.1,0-0.1,0,0,0
	C98.6,125.7,98.6,125.5,98.4,125.4z M96.9,121.8c0.5-1.1,0.9-2.2,1.3-3.4c0,0,0,0,0.1-0.1c2,0.7,4.1,1.3,6.4,1.9c0,0,0,0,0.1,0
	c0,0,0,0-0.1,0C102.3,120.8,99.7,121.3,96.9,121.8z M86.8,124.4C86.8,124.4,86.8,124.4,86.8,124.4c1.1-0.9,2.1-2.1,3.2-3.3
	c-0.1-0.2-0.1-0.2,0,0c0.1,0.2,0.4,0.9,0.7,1.7c-0.1,0.3-0.1,0.7,0,0.9c0.1,0.4,0.4,0.7,0.7,0.9c0,0,0,0,0-0.1c0,0,0,0,0,0.1
	c0,0.1-1.1,2.1-1.6,2.8l0,0l0,0C88.8,126.3,87.8,125.4,86.8,124.4z M88.9,128.2c-0.3,0.2-0.5,0.4-0.5,0.5c-0.2-0.3-0.6-1.4-0.8-1.7
	C87.3,126.4,88.3,127.4,88.9,128.2z M78.8,107.6c0,0.1,0.6,0.4,0.6,0.4c0.1,0.2,0.3,0.3,0.4,0.5c0.2,0.5-0.2,0.8,0.1,1.3
	c-0.3-0.4-0.6-0.8-0.9-1.2l0,0c0.1-0.1,0.1-0.2,0.2-0.3C79,108.1,78.9,107.9,78.8,107.6z M79.5,104.6c-0.1,0-0.2-0.1-0.3-0.2
	c-0.1-0.2-0.8-2.6-1-3.5c0,0,1.6,0.1,3.5,0.1c0,0,0,0.1,0,0.1l-0.6,1C80.6,103,80.1,103.8,79.5,104.6z M75.9,87.2
	c-0.6-0.8-1.2-1.5-1.8-2.3c1.8-2.3,3.9-4.6,6.4-6.8c-1.1,2.3-2,4.8-2.8,7.3c0,0,0,0,0,0c0,0,0,0,0,0C76.9,85.8,76.3,86.4,75.9,87.2z
	 M76,103.3c-0.2-0.5-0.5-2.3-0.5-2.6c0.5,0.1,0.9,0.2,1.3,0.2v0c0.1,0.8,0.3,1.6,0.5,2.4c0,0.1,0.1,0.3,0.1,0.5
	C77,103.6,76.5,103.4,76,103.3z M76.9,115.6c0.2,0.2,0.6,0.4,0.8,0.7c0.1-0.1-0.3,0.2-0.7,0.5C76.9,116.3,76.8,115.8,76.9,115.6z
	 M72.8,96.1c-0.1-1.1-0.1-2.6-0.2-4.2c0-2.1,0.4-3,0.4-3l1.8,0.9c-0.1,0.4-0.2,1-0.3,1.8c-0.1,0.6-0.2,1.5-0.2,2.4
	c-0.2,0.1-0.4,0.1-0.5,0.2c-0.3,0.1-0.4,0.3-0.5,0.3c0,0,0,0,0,0c0,0-0.1,0.1-0.1,0.1c-0.1,0.5,0.1,0.8,0.6,1.1c0.1,0,0.2,0,0.3-0.1
	c0,0.2,0,0.3,0,0.3l0,0c-0.1,0.8-0.2,1.6-0.3,2.6C73.7,98.1,73.3,97.1,72.8,96.1z M73.1,103.8C73.1,103.8,73.1,103.8,73.1,103.8
	L73.1,103.8C73.1,103.8,73.1,103.8,73.1,103.8z M73.7,108.8c0.1-0.3,0.1-0.5,0.2-0.8c0.1-0.3,0.1-0.6,0.2-0.9c0,0,0,0,0,0
	c0,0,0,0,0,0c0.5,1.3,1.1,2.6,1.8,3.6l0,0c-0.1,0.2-0.1,0.4-0.2,0.6C75,110.3,74.3,109.5,73.7,108.8
	C73.7,108.9,73.7,108.9,73.7,108.8z M76.6,99c-0.2,0-0.4-0.1-0.7-0.1c0.2-1,0.4-1.6,0.4-1.7c0,0,0-0.1,0-0.1l0.1-0.2
	C76.4,97.5,76.5,98.3,76.6,99z M76.5,96.4L76.5,96.4L76.5,96.4C76.5,96.4,76.5,96.4,76.5,96.4z M78.7,71.7L78.7,71.7
	c0.2-0.5,0.6-1.4,0.8-1.7c0.5,0.5,2,1.8,2.1,1.9c0,0,0,0,0,0c-2.1,2-4,4.1-5.8,6.2c0.6-1.7,1.3-3.4,2.2-5l0,0c0.2,0,0.4-0.1,0.7-0.2
	C78.6,72.6,78.6,72.1,78.7,71.7z M84.2,90.7c-0.7,0.2-1.7,0.4-2.4,0.6c-1.2-0.7-3.3-2.4-3.3-2.4c0.3-1.2,0.5-2,0.5-2
	c0.8-3.3,1.5-4.5,3-7.6c0.2,1.9,0.8,3,1.5,3.2c0.1,0,0.3,2.5,0.4,2.5C83.8,85.1,84.2,88.1,84.2,90.7z M86.9,104
	c0.3,0.3,0.6,0.4,0.9,0.4c0,0.5,0,1,0,1.4c0.1,1.8,0.4,3.8,0.8,5.2c-0.7-1.1-1.5-2.1-2.4-3.1l0,0c0,0-2.5-3.5-2.6-6.6
	c0.1-0.1,0.1-0.2,0.2-0.3c0,0,0,0,0,0c0.6-0.2,1.4-0.4,2.3-0.7c1.8-0.7,2.8-1.5,2.8-1.5c-0.2,0.5-0.4,1.1-0.4,1.8
	c0,0-0.2,0.8-0.4,1.9c-0.4,0-1.1,0.1-1.3,0.5C86.6,103.3,86.4,103.5,86.9,104z M79.8,92.1c0,0-0.9,0.3-2,0.7
	c0.1-0.6,0.2-1.1,0.2-1.5C78.9,91.9,79.9,92.1,79.8,92.1z M77.6,94.6c0.8-0.3,4.2-1.5,4.3-1.5c0.1,0,0.7,0.4,1.1,0.7
	c-0.2,0.4-0.6,1.2-0.8,2.4c-0.3,1.6-0.5,2.9-0.5,2.9s0,0.1,0,0.3c-1.7,0.1-3.6-0.1-3.8-0.1l0,0c-0.1-0.5-0.1-1-0.2-1.5c0,0,0,0,0,0
	C77.7,97.2,77.5,96,77.6,94.6z M82.2,103.7C82.2,103.7,82.2,103.7,82.2,103.7C82.2,103.7,82.2,103.7,82.2,103.7
	C82.2,103.7,82.2,103.7,82.2,103.7z M80.5,117.2c0.1-0.2,0.2-0.3,0.3-0.4c-0.1-0.3,0.4,1,0.6,1.5C81.4,118.3,80.8,117.5,80.5,117.2
	L80.5,117.2z M80.6,105.9c0.4-0.6,1.3-1.6,1.7-2.1c0,0.1,0.1,0.2,0.1,0.3c0,0,0,0,0,0c0.2,0.5,0.3,1.1,0.6,1.6
	c0.3,0.6-0.3,0.9,0,1.5c0.4,0.3,0.6,0.6,0.7,0.9C83.3,107.9,80.3,105.8,80.6,105.9z M82.2,115.8c-0.1,0-0.2,0-0.3-0.1l0,0
	C82,115.8,82.1,115.8,82.2,115.8z M82,115.9c0.1,0,0.2-0.1,0.2-0.1l0,0c0.5,0.2,1,0.3,1.5,0.4c0.4,0.1,0.8-0.2,1.1-0.8
	c1,0.7,2,1.3,3.2,1.8c0.4,0.6,0.7,1.2,1.1,1.8c-1.2,1.5-2.5,2.7-3.7,3.7l0,0C84.1,120.4,83,118.1,82,115.9
	C82,115.9,82,115.9,82,115.9C82,115.9,82,115.9,82,115.9z M90.3,116.2C90.3,116.2,90.3,116.2,90.3,116.2c-0.2-0.3-0.9-1.1-1.2-1.3
	c0.6,0,1.5,0,1.5,0S90.2,115.9,90.3,116.2z M90.5,88.7c0.5-0.6,0.9-1.3,1.3-2.3c0,0.6-0.1,1.2-0.2,1.9l0,0
	C91.3,88.5,90.9,88.6,90.5,88.7z M91.7,97.4c0.1-1.1,0.3-2.3,0.6-3.6c0.3,0,0.5,0.1,0.8,0.1c1.7,0.4,3.3,1.1,4.8,2.1
	c-0.3,0.3-0.4,0.4-0.5,0.4c-0.9,0.7-1.8,1.2-2.6,1.5c-0.6-0.2-1.2-0.3-1.9-0.5c-0.2,0.1-0.3,0.2-0.4,0.3
	C92.3,97.7,92,97.6,91.7,97.4C91.7,97.4,91.7,97.4,91.7,97.4C91.7,97.4,91.7,97.4,91.7,97.4z M102.8,87.6
	C102.8,87.6,102.8,87.6,102.8,87.6c-0.3-0.4-0.5-0.8-0.7-1.3c0,0,0,0,0,0c0.4-0.1,0.8-0.3,1.2-0.4C103.1,86.4,102.9,87,102.8,87.6
	C102.8,87.6,102.8,87.6,102.8,87.6z M102.7,83.9c-0.3,0.1-0.5,0.2-0.7,0.3c0.1-0.3,0.3-0.5,0.4-0.8
	C102.4,83.6,102.6,83.7,102.7,83.9c0.1,0.1,0.2,0.3,0.3,0.5C102.9,84.2,102.8,84,102.7,83.9z M102.4,109.1L102.4,109.1
	c0.1,0.1,0.2,0.2,0.3,0.2l0,0c0.2,0.9,0.7,3,0.6,3c-1,0.1-2,0.1-3.1,0.1c0.1-0.4,0.4-1.1,0.7-2l0.9-0.8l0-0.1
	C102,109.4,102.2,109.3,102.4,109.1z M100.1,95.1c0-0.2-0.3-1.5-0.2-2.2c0.2,0.2,0.5,0.4,0.7,0.6c0.1,0.1,0.1,0.1,0,0
	C100.3,93.8,100.4,94.8,100.1,95.1z M100.1,89.8c0-0.2,0.4-1.3,0.4-1.3c0,0,0-0.1,0-0.1l0,0c0-0.1,0-0.2,0-0.2
	c0.1,0.1,0.1,0.2,0.2,0.3l1.1,1.7C101.5,89.7,100.6,90.2,100.1,89.8z M100.8,81.9c-0.2,0.5-0.5,1-0.7,1.5c-1.3-1.8-2.4-3.2-3.3-4.1
	l0,0c0.1-0.3,0.1-0.5,0.1-0.6c0.5,0.4,1.1,0.9,1.8,1.4C99.5,80.6,100.2,81.3,100.8,81.9L100.8,81.9z M98.7,98.8c0,0,0,0.1,0,0.1
	c-0.1,0-0.3-0.1-0.4-0.1c0.2-0.1,0.3-0.2,0.4-0.3C98.7,98.6,98.7,98.7,98.7,98.8z M97.4,86.2c0.1,0.1-2.2-1.9-2.3-2
	c0.1-0.2,0.7-1.8,0.9-2.5c0.8,1.1,1.6,2.4,2.8,3.9C98.3,85.8,97.9,86,97.4,86.2z M98.8,76.4c-0.1,0-0.4,0-0.4,0
	c-0.9-0.3-1.8-0.6-2.8-0.8c-0.5-0.1-0.9-0.2-1.2-0.1c0.2-1.2,0.5-3.7,0.5-3.7l0,0C96.1,73.2,97.6,75.1,98.8,76.4L98.8,76.4z
	 M95.2,77.2L95.2,77.2c0.4,0.3,1.4,1.2,1.2,1.1c-0.2,0-0.7-0.1-0.9,0c-0.4-0.2-0.7-0.4-1-0.5c-0.1,0-0.3,0-0.5,0.1l0,0
	c0.1-0.3,0.1-0.6,0.2-0.9C94.2,77,94.9,77.1,95.2,77.2z M94.4,79.5c-0.4,0.6-1.2,2.9-1.2,2.9c0-0.2,0.1-1.2,0.1-1.4
	c0.1-0.7,0.3-1.4,0.5-2.3L94.4,79.5z M93.5,89.3L93.5,89.3c0.1,0,1.4-0.5,1.4-0.5c1,0.8,2.2,1.8,3.5,3c0,0,0,0,0,0c0,1-0.1,2,0,2.9
	c0,0.5-3.4-2.1-4.8-2.4c-0.3-0.1-1-0.1-1-0.2c0-0.1,0-0.2,0.1-0.3c0-0.1,0-0.2,0.1-0.4C93.1,90.6,93.3,89.9,93.5,89.3z M92.2,101
	c0.1-0.8,0.2-1.4,0.2-1.9c0,0,0.9,0.6,1.4,0.9c0.1,0,0.3,0.1,0.5,0.1c-0.8,0.7-1.5,1.4-2.1,2.1c0,0-0.1,0-0.2,0
	C92,101.8,92.1,101.3,92.2,101z M95,101.4c0.3-0.3,0.7-0.6,1.1-0.9c0.8,0.2,1.8,0.4,2.9,0.7l0,0c0,0.1,0,0.3,0,0.4l-0.1,0.5
	c-0.1,0.2-0.1,0.7-0.2,1c0,0-3.7-0.6-4.7-0.7C94.3,102,94.7,101.7,95,101.4z M98.2,104.9l-0.7,2.6l-0.7-3.1L98.2,104.9z M97.3,125.3
	c0.1,0-0.1,0.7-0.4,0.7c-0.8,0-1.6,0-2.2,0.1c0.2-0.3,0.3-0.6,0.5-0.9C95.6,125.3,97.2,125.1,97.3,125.3z M101.8,117.4
	C101.7,117.5,101.7,117.5,101.8,117.4c0.1-0.2,0.1-0.3,0.2-0.6c0-0.2,0.1-0.3,0-0.4c0.8,0,1.6,0,2.3,0c0.3,0.8,0.5,1.4,0.7,1.8
	C103.8,118,102.8,117.8,101.8,117.4z M103.4,103.7c0-0.5-0.1-1.1-0.1-1.6c0.5,0.1,1,0.2,1.6,0.2L103.4,103.7z M103.4,98.9
	c0-0.1,0-0.2,0-0.2l0.7-2.3l1.5,1.4c0,0,0.3,0.8,0.5,3.2c0,0.1-0.1,0.1-0.1,0.2l0,0L103.4,98.9z M103.7,79.3c0.2-0.3,1.3-0.1,1.5,0
	c0-0.1,0-0.1,0,0c-0.1,0.4-0.3,0.9-0.4,1.4C104.7,80.3,103.9,79.5,103.7,79.3z M106.1,59.4L106.1,59.4c0.8,0.2,1.6,0.4,2.4,0.6
	c0.1-0.3-0.1,2-0.1,2c-0.7-0.6-1.5-1.1-2.3-1.6C106.1,60,106.2,59.6,106.1,59.4z M108.7,65.1l-2.5,0.2l-1.1-3L108.7,65.1z M108,55
	l3.2,0.7l0,0c0.4,0.3,0.8,0.7,1.2,1.1c0.1,0.2,0.4,0.9,0.6,1.2c-0.3,0-0.5,0-0.8,0v0c-0.5-0.9-0.8-1.4-1.1-1.5
	c-0.3-0.1-0.6,0-0.9,0.1l0,0C109.5,56,108.8,55.5,108,55z M112.4,71.3c0,3,0.9,7.1,1.3,10.3c0,1-0.1,2.7-0.1,2.8
	c-0.6,0.3-1.8,0.8-3.7,1.9c-0.2-0.3-0.5-0.6-0.7-0.9l-0.4-5.2c0-0.1,0.1-0.2,0.1-0.4C109.5,77.3,110.2,73,112.4,71.3z M107.6,70.9
	c-0.2-0.2-0.3-0.4-0.5-0.5l0,0c-0.1-0.4-0.2-0.8-0.2-1.1l0,0c0.6,0,1.1-0.1,1.6-0.1c-0.2,0.5-0.4,1-0.6,1.6c0,0,0,0.1,0,0.2
	C107.9,70.9,107.7,70.8,107.6,70.9C107.7,70.9,107.7,70.9,107.6,70.9z M111,102c-0.5,0.9-1.2,1.4-2.1,1.7l-0.8,0c0-0.1,0-0.3,0-0.4
	l0,0c0.3-0.4,1-1.1,0.9-1C109.7,102.2,110.3,102.1,111,102z M110.8,90.8C110.8,90.8,110.8,90.8,110.8,90.8c0.8,1,1.6,2,2.4,2.9
	c-0.1,0.3-0.1,0.6-0.2,0.9l-1.1,4.9c-0.4,0.2-1.3,0.4-2,0.5c0-0.3-0.1-0.7-0.4-1.2l0-0.1L110,97c0-1-0.1-1.9-0.2-2.8l0,0l0-0.1
	c0-0.3,0-0.6-0.1-0.9c0,0,0,0,0,0l-0.2-1.8L110.8,90.8C110.7,90.8,110.8,90.8,110.8,90.8z M110.8,87.5c0.7-0.4,1.3-0.8,1.8-1
	c-0.3,0.7-0.6,1.4-0.9,2.1C111.4,88.2,111.1,87.9,110.8,87.5z M109.5,89.8l-0.1-0.8c0.2,0.2,0.3,0.4,0.4,0.6L109.5,89.8z
	 M113.2,101.4L113.2,101.4c1.3-0.4,2.4-1,3.4-1.7c0,0.2,0,0.4,0.1,0.7c0,0,0,0,0,0c-0.1,0.7-0.2,1.9-0.3,2c-2.9,1.5-4.7,2.5-5.6,3.2
	l0,0c-0.8-0.2-1.7-0.4-2.7-0.6C110.4,105.2,112.1,104,113.2,101.4z M116.7,89.5c-0.3-0.1-0.5-0.1-0.8-0.2c0.2-1,0.3-1.7,0.4-2.2
	c0.1,0.1,0.1,0.2,0.3,0.3l0,0c0.1,0.5,0.4,0.5,0.4,1L116.7,89.5z M116.6,91.5c-0.1,0.8-0.2,1.7-0.3,2.5l-1.1-1.2
	c0-0.4,0.1-0.8,0.2-1.2c0-0.2,0.1-0.4,0.1-0.6v0C115.9,91.2,116.2,91.3,116.6,91.5z M116.1,97.3C116.2,97.3,116.2,97.3,116.1,97.3
	C116.2,97.3,116.2,97.3,116.1,97.3c-0.6,0.4-2.3,1.5-2.2,1.1c0.1-0.9,0.6-2.5,0.7-3C115.2,96.1,115.7,96.6,116.1,97.3z M114,87.2
	c0,0.6-0.1,1.1-0.1,1.7v0c-0.4,0-0.7,0.2-0.8,0.5c-0.1,0.5,0.5,0.7,0.7,0.8c-0.1,0.3-0.1,0.5-0.1,0.8c-0.5-0.5-1.5-1.8-1.3-1.6
	C112.9,88.6,113.5,87.9,114,87.2L114,87.2z M107.6,86.7l0.1,1c-0.9,0.5-1.5,0.9-2,1.2c0.4-0.9,0.8-1.9,1.1-2.9
	C107,86.2,107.3,86.4,107.6,86.7z M105.9,90.2c0.5-0.3,1.1-0.6,1.8-1.1l0.1,1.5l-2.5,1.4L105.9,90.2z M106,93.8l2.1-1.3l0.3,4
	c0,0.1-0.1,0.2-0.1,0.2C107.5,95.8,106.7,94.7,106,93.8z M106.2,116.3c0.8-0.1,1.7-0.3,2.4-0.5c-0.7,0.9-1.2,1.8-1.8,2.9
	c0,0-0.1,0-0.1,0C106.5,117.9,106.3,117.1,106.2,116.3L106.2,116.3z M114.3,113L114.3,113C114.3,112.9,114.3,112.9,114.3,113
	c1.3-1,2.2-2.1,3-3.3c0.7,0.3,1.3,0.6,1.8,0.9l0,0c-0.8,0.7-1.8,1.7-3.1,2.9c-1.2,1.2-1.5,2.4-1.6,2.8c-0.1,0.3-2.1,1.3-2.2,1.3
	C113,116.2,113.9,114.3,114.3,113z M116.7,73.5c0.2,0-0.2-0.5-0.8-2.7c0,0,0,0,0,0c-0.3-1.3-0.7-2.7-1.1-4.1l0,0
	c0.1-0.3,0.2-0.5,0.3-0.7c0.2,0.4,0.4,0.7,0.5,1.2c0.1,0.3,0.3,0.5,0.4,0.8l0,0c1.1,1.8,3.5,7,3.5,7l-1.3-0.4L116.7,73.5z
	 M116.8,61.1c0.1-0.1,0.6-0.9,0.6-0.9l-0.4-0.5c0.5,0.1,1.3,0.7,1.9,0.8c0.7,0.2,2,1.2,2.7,1.5C120.3,61.7,118,61.5,116.8,61.1z
	 M112.8,53.5c-1.4-0.3-6.2-1.8-7.5-1.9c-0.4-0.1,0.1-0.9,1.2-0.7c0.7,0.1,6.4,0.9,6.9,1l1.7,1.6C115.2,53.6,112.8,53.4,112.8,53.5z
	 M106.1,55.8c1,0.7,2,1.4,3,2.1l0,0c0,0.1,0,0.2,0,0.4l0,0c-1.7-0.4-3.5-0.9-5.4-1.3c-0.2-0.5-0.3-0.9-0.5-1.4
	c-0.2-0.6-0.3-1.2-0.4-1.8l0.2,0l0,0C104.1,54.4,105.1,55,106.1,55.8z M93.5,69.9c0,0-0.4,3.6-0.9,5.9l0,0c-0.2,0-0.4-0.1-0.6-0.1
	c0,0-2-3.2-3.7-3.7c0.7-0.5,1.7-1.1,2.8-1.8C91.9,70,92.7,69.9,93.5,69.9z M88.9,75.6c0.8,1.7,2.4,3.3,2.8,4.5
	c0.4,0.4-0.1,0.8,0.5,1.3c-0.5-0.5-1-1-1.4-1.4c-0.3-0.3-1.8,0.4-2,0.1c-1.2-1.4-0.9-3.8-1.4-5c0,0,0,0,0,0c0,0,0,0,0,0
	C87.8,75.2,88.4,75.4,88.9,75.6z M86.9,73.3L86.9,73.3c0-0.1,0-0.2,0-0.3c0.2-0.2,0.4-0.3,0.6-0.4l0,0c0.2,0.5,0.4,0.9,0.7,1.3l0,0
	C87.7,73.7,87.3,73.5,86.9,73.3z M89.7,84.2c0.3,0.4-2.1,4.8-2.2,5.3S86,89.8,86,89.8v-9.4C86,80.4,89.4,83.8,89.7,84.2z M91.1,90.1
	c0.1,0,0.2-0.1,0.3-0.1v0c0,0.3-0.1,0.6-0.2,0.9c0,0.1-0.1,0.3-0.1,0.4c0,0.1-0.1,0.3-0.1,0.4c0,0,0,0,0,0c0,0,0,0,0,0
	c-2.1-0.3-3.8-0.3-5.2,0C87.5,91.2,89.2,90.6,91.1,90.1z M90.5,94c-0.3,0.6-0.8,1.3-1.3,1.9l0,0c-1.4-0.9-2.6-1.7-3.5-2.3
	C86.7,93.3,88.6,93.6,90.5,94z M88.3,96.8L88.3,96.8c-0.3,0.2-0.7,0.7-1.8,1.3c-0.4,0.2-0.8,0.4-1.7,0.6c-0.1,0-0.1,0-0.2,0
	c0.4-1.2,0.6-2.3,0.6-2.3c0.1-0.5,0.1-0.9,0.2-1.3C86.3,95.6,87.3,96.1,88.3,96.8z M82.8,70.8C82.7,70.9,82.7,70.9,82.8,70.8
	c-0.1-0.1-1.7-1.2-2.2-1.8c1-0.6,2.5-0.8,4.3-0.7c0.2,0,0.4,0,0.6,0C85.6,68.2,83.7,69.9,82.8,70.8z M80.4,65.4
	c-0.1,0-0.1,0.1-0.2,0.2c-0.5,0.2-1.3,1-1.6,1.2L78.2,67c-1,0.6-2.1,1.1-2.8,1.6c0,0,0,0,0,0c0,0,0,0,0,0c0-0.1-0.2-0.2-0.2-0.2
	c-0.3,0.1,1.9-1,2.8-1.5C78.3,66.7,79.9,65.7,80.4,65.4z M77.7,50.6c-0.3,0.1-0.9,0.4-1.1,0.5c-0.4-0.1-1.5,0.1-1.7,0l-0.2-0.6
	C75.1,50.5,77.5,50.6,77.7,50.6c0.2,0,0.5-0.1,0.8-0.1C78.2,50.6,78,50.6,77.7,50.6z M75.8,71.9c0.1-0.6,0.8-2.1,1-2.3
	c0.5-0.4,0.9-0.8,1.4-1.1c-0.2,0.4-0.5,1.3-0.5,1.3c-0.1,0-0.1,0-0.1,0.1l0,0c-2.1,3.7-3.8,7.8-5,12.3l0,0c-0.1,0.2-0.3,0.3-0.4,0.5
	c-0.7-0.8-1.3-1.7-1.9-2.6c0.4-1.3,0.9-2.4,1.3-3.5C74.4,74.4,75.5,72.8,75.8,71.9z M71.5,88.4l0,4.1l-0.9-2.5
	C70.9,89.5,71.2,88.9,71.5,88.4z M69.8,109.6c0.2,0.4,0.4,0.9,0.8,1.7l0,0c-0.2,0.5-0.8,1.5-0.9,1.4c-1.8-2.7-3-5.8-3.3-8.3
	C67.4,106,68.6,107.8,69.8,109.6z M69.2,105.8c0.7,0.8,2.7,2.9,2.7,2.9c0,0-0.3,0.7-0.4,0.9c-0.2-0.3-0.6-0.9-0.7-1.1
	C70.1,107.6,69.8,106.7,69.2,105.8z M71.7,113.9c0.2,0.5,0.4,1,0.7,1.6c-0.3-0.4-0.9-0.7-1.2-1C71.2,114.4,71.6,114.1,71.7,113.9z
	 M72.3,107.2c-1.4-1.6-2.7-2.9-3.8-3.8c2.1,0.5,3.6,0.8,4.5,0.9C73,104.2,72.4,106.9,72.3,107.2z M72.8,111.4
	c0.1-0.2,0.2-0.5,0.3-0.7c0.8,1.1,1.7,2.1,2.4,3.1c0,0.3,0,0.7,0,1.1c0,1,0,1.9,0.2,2.9l0,0l0,0l0,0c0,0-0.7-1.7-1.1-2.6
	C73.9,113.8,73.4,112.5,72.8,111.4L72.8,111.4z M74.9,124.2C75,124.2,75,124.2,74.9,124.2c0.8,0.2,2.5,0.5,2.7,0.6
	c0.1,0.2,0.1,0.7,0.2,0.9c-0.3,0-1.2-0.1-1.6-0.1c-0.1-0.1-0.2-0.1-0.4-0.2l0,0C75.6,125,75.3,124.6,74.9,124.2
	C74.9,124.2,74.9,124.3,74.9,124.2C74.9,124.3,74.9,124.2,74.9,124.2z M77.1,113c0-0.1-0.1-0.8,0.1-0.6c0.7,0.8,1.6,1.5,2.4,2.1
	c0.1,0,0.1,0,0,0c-0.3,0.2-0.5,0.4-0.8,0.6c-0.2,0.1-0.2,0.1,0,0C78.2,114.3,77.7,113.6,77.1,113z M79.1,118.5
	c0.2-0.2,0.9,0.9,1.1,1.2c1,1.2,2,2.3,3.1,3.4v0c0,0,0.1,0.3,0,0c-1.8-1-3.5-2.1-4.9-3C78.6,120,79,118.7,79.1,118.5z M82.2,126.9
	c0,0,1.3-0.2,1.8-0.6c0.2,0,0.6,0.1,0.8,0.1c-0.1-0.2,0.7,1.3,1,1.9c0,0,0.1,0.2,0.2,0.3l0,0c-0.2,0.1-0.3,0.2-0.4,0.3
	C85.5,129.2,83.2,127.6,82.2,126.9z M86.3,132.7c0.3,0.4,0.7,0.9,1.2,1.4c-0.1,0.1-0.3,0.3-0.4,0.4c-0.9-0.6-1.8-1.3-2.7-1.9
	C84.3,132.5,85.7,132.7,86.3,132.7z M86.2,137.8c0.9,0.6,1.9,1.3,2.9,1.9c0,0-0.1,0.4-0.4,0.2c-1.4-0.8-1.9-1.3-2.1-1.3
	c-0.2,0-0.3,0.6-0.6,0.9c0-0.1-0.4-0.6-0.5-0.6C85.8,138.5,86,138.1,86.2,137.8z M88,135.1c0.1-0.1,0.2-0.2,0.3-0.3l0,0c0,0,0,0,0,0
	c0.7,0.6,1.5,1.3,2.4,2C89.8,136.3,88.9,135.7,88,135.1z M90.7,130.9L90.7,130.9c0.2-0.2,0.3-0.3,0.5-0.4c0.2,0.2,0.4,0.3,0.6,0.5
	c-0.1,0-0.1,0.1-0.2,0.1C91.3,131.1,91,131,90.7,130.9z M93.4,109.4c-1.1-2-1.1-2-1.3-2.9l-0.2-1.4l0.1-0.3c0.2-0.3,0.4-0.7,0.7-0.9
	c0.6,0.1,1.4,0.2,2.3,0.3l1,8.2L93.4,109.4z M101.1,128.7c0.6-0.2,1.2-0.4,1.7-0.7l0,0c0.6,0,1.2,0,1.8,0c0.1,2,0.3,3.9,0.7,5.7
	C103.7,131.9,102.3,130.3,101.1,128.7z M105.2,111.8c0,0-0.1,0.1-0.1,0.1c0-0.1-0.6-1.6-0.4-1.6c0,0,0.9,0.4,0.9,0.4
	C105.5,111,105.4,111.4,105.2,111.8z M104.5,107.1c0.2-0.3,0.6-0.6,0.9-0.9c0.1-0.1,0.2-0.2,0.3-0.3c-0.1,0.1-0.2,0.2-0.3,0.3
	c0.3,0.1,0.5,0.1,0.9,0.2v0c-0.1,1-0.1,1.9-0.3,2.9C105.4,108.5,104.9,107.8,104.5,107.1z M106.2,125.9L106.2,125.9
	c0.8-0.6,1.5-1.4,2.2-2.2l0,0c1.4-0.5,2.8-1.2,4.2-2c1.7,0.3,3.4,0.5,4.9,0.8c0.1-0.1,0.1-0.1,0,0c-1.7,1.5-3.5,3.1-5.2,4.5
	c0,0-4.2-0.6-6.2-0.5C106.1,126.3,106.1,126.2,106.2,125.9z M120,105c0.6-0.5,1.2-1.1,1.8-1.7c-0.1,2.1-0.4,3.8-0.6,5
	c0,0.1-0.1,0.1-0.1,0.1C120.8,107.4,120.4,106.1,120,105z M120,100.3l0.4-5.2c1.1,2.5,1.2,3.9,1.2,4C121.5,99.2,120,100.3,120,100.3
	z M120,79.8c-0.4-0.9-0.7-1.8-1.1-2.5l0,0c-0.2-0.4-0.3-0.7-0.5-1c0,0,0,0,0,0c0,0,0,0,0,0c0.7,0.3,1.5,0.6,2.2,0.9
	c-0.1-0.3-0.3-0.6-0.4-0.9c0.1,0.3,0.3,0.6,0.4,0.9c0.4,0.9,0.7,1.8,1.1,2.5c0.7,1.8,1.4,3.6,2.1,5.3l0,0l0.2,0.7
	c-0.6-0.2-1.2-0.3-1.8-0.4l0,0C121.6,83.7,120.9,81.9,120,79.8z M124.8,99.1c0.1-0.3,0.2-0.6,0.2-0.9c0.3,0.2,0.6,0.5,0.9,0.7
	c0,0.5,0,1,0,1.5c0,0.7,0,1.3,0,1.7c-0.4,0.6-0.8,1.2-1.2,1.8c0.1-1.4,0.1-2.6,0.1-2.9C124.9,100.7,124.9,100,124.8,99.1z
	 M125.8,94.7c-0.5-0.4-1-0.8-1.5-1.2c-0.1-0.6-0.2-1.2-0.3-1.8c-0.3-1.4-0.7-2.5-0.9-3.3c0.4-0.5,0.9-1.1,1.3-1.7l1.6,4.5
	C125.8,92.7,125.8,93.9,125.8,94.7z M123.6,129c-0.1,0.3-0.1,0.6-0.2,0.9c0,0-0.1,0.4-0.2,1c-0.4-0.2-0.8-0.4-1.2-0.6
	C122.6,129.7,123.2,129.3,123.6,129z M122.7,125c0-0.6,0.1-1.2,0.1-1.8c0.3,0,0.6,0.1,1,0.1C123.5,123.8,123.1,124.4,122.7,125z
	 M122.8,117.7c-0.1-1.3-0.3-2.4-0.5-3.8c0-0.2,0.7,0.3,0.7,0.3c0,0.1,0.8,0.4,1.9,0.6C125,115,122.8,117.7,122.8,117.7z
	 M125.4,120.4c0,0-0.7,1.8-0.8,1.9c-0.2,0-0.4-0.7-0.6-0.7L125.4,120.4z M122.9,112.5c0.3-0.4,0.6-0.9,1-1.6
	c0.1-0.3,0.3-0.9,0.4-1.7c0.6-0.7,1.2-1.4,1.6-2c-0.1,2.3,0.1,5,0.1,6C125.1,113.2,123.3,112.9,122.9,112.5z M125.4,79.8l1.4,0.5
	l-0.1,2.7C127.3,88.9,126,82.5,125.4,79.8z M126.7,78.8c-0.5-1-1.9-1.4-2.4-1.7l0,0c-1-2.5-1.9-4.6-2.6-6.4
	c-0.1-0.2-0.2-0.4-0.2-0.6l0,0c0.8,0.7,1.7,1.3,2.9,2l0,0c1.1,1.5,1.8,3,2.4,4.6c0.1,0.4,0.2,0.8,0.4,1.2c0,0,0,0,0,0c0,0,0,0,0,0
	c-0.1,0.1-0.3,0.7-0.3,0.7C126.7,78.8,126.9,78.3,126.7,78.8z M126.3,57.3C126.3,57.3,126.3,57.3,126.3,57.3
	c-2.8-3.8-7.4-6.7-13.7-8.5c-0.6-1-1.5-2-2.7-3.2c1.9,0.2,5.5,0.6,8.5,1.4c0,0,3.5,2.6,4.1,3.1c0.6,0.5,1.2,0.9,1.7,1.4l0,0
	c0.8,0.6,1.6,1.3,2.3,1.9c-0.1,0-0.1,0-0.2,0.1c0.2,0.4,1.1,1.9,2.8,4.6c0,0,0,0.1,0,0.1c0,0,0,0,0-0.1
	C128.4,57.8,127.4,57.6,126.3,57.3z M112.2,43c0.2-0.1,0.5-0.1,0.7-0.2l0,0c1,0.6,2.5,1.7,4.4,3.2c-3.3-0.8-6.2-1.5-8.9-2.3
	C109.6,43.6,110.8,43.3,112.2,43z M108.6,39.5L108.6,39.5c0.7,0,1.5,0.1,2.4,0.2c-0.4,0-0.9,0.1-1.4,0.2
	C109.3,39.8,108.9,39.7,108.6,39.5z M137.9,75.5c-1.4-0.2-2.6-0.5-3.8-0.8l0,0c-0.5-0.5-1-0.9-1.5-1.3c-0.5-1.2-1.2-2.2-1.8-3.1
	c0,0,0,0,0,0s0,0,0,0c-0.1-0.3-0.2-1.2-0.4-1.9c0,0.1,0,0.2,0.1,0.3c1.8,0.7,3.8,1.4,5.8,2.2c0.1,0,0.1,0,0.2,0.1
	c-0.1,0-0.1,0-0.2-0.1C136.9,72.4,137.5,74,137.9,75.5z M134.4,100.3c-0.4,2.3-0.9,5.6-1,6.8c0,0.2,0,0.4,0,0.5c0-0.2,0-0.4,0-0.5
	c-0.7,1.1-1.2,1.9-1.6,2.4c-0.2,0.2-0.3,0.4-0.5,0.7v0c0.4-2.6,0.4-5.5,0.2-8.6c0,0,0,0,0,0c-0.1-3-0.2-5.4-0.3-6.1
	c0-0.1-0.9-2.1-0.9-2.2c0,0,0,0,0,0l0,0c0,0,0,0,0,0c0,0,0,0,0,0c0.1-0.8,0.3-1.5,0.4-2.2c0-0.3,0-0.3,0,0c0.3,0,0.6-0.3,0.9-0.7
	c-0.3-0.3-0.5-0.6-0.7-0.8l0,0c0-0.4,1-2.7,1.3-1.9c0.5,1.6,2,6.4,3,9.2C135.1,98.4,134.3,100.1,134.4,100.3z M131.8,79.2
	c-0.1-0.5-1-4.2-1-4.2s1.5,0.1,2.1,1s2.1,4.3,2.1,4.3S131.9,79.7,131.8,79.2z M135.5,63.8c-0.3-0.6-0.6-1.1-1-1.7
	c0.5,0.5,0.9,1.1,1.3,1.6C135.7,63.7,135.6,63.7,135.5,63.8z M135.2,68.4c0.1,0.2,0.1,0.3,0.2,0.4l0,0c-1.8-0.6-4.1-0.7-5.9-1.2
	c0.2-0.4,0.2-2,0.2-1.9C131.6,66.4,133.5,67.7,135.2,68.4C135.1,68.1,135.1,68.1,135.2,68.4z M129.5,64c0,0.2-0.9-2.9-1.6-4.3l0.2,0
	c1.1,0.2,1.9,0.4,2.6,0.6l0,0c1.3,2,2.4,3.8,3.3,5.5C132.6,65.2,129.5,64,129.5,64z M128.6,58c0.3,0.1,0.5,0.2,0.8,0.3l0,0
	C129.1,58.2,128.9,58.1,128.6,58z M130.2,53.7C130.2,53.7,130.2,53.7,130.2,53.7L130.2,53.7C130.2,53.7,130.2,53.7,130.2,53.7z
	 M131.2,54.5L131.2,54.5c-0.4-1.1-0.6-1.7-0.7-1.9c-0.1-0.2-1.1-0.8-0.9-0.8c-0.7-1-0.3-0.5-0.9-1.4c-0.3,0-0.5-1.1-0.7-1.2
	c-0.8-0.7-1.8-1.1-2.9-1.4l0,0c-0.4-0.4-0.6-0.6-0.8-0.6c-0.4,0.1-0.6,0.1-0.7,0c-0.1,0-0.1,0.1-0.1,0.2l0,0
	c-0.5-0.1-0.9-0.2-1.4-0.3l0,0c-2.5-1.9-4.9-3.4-7-4.6c-0.5-0.3,4.6-0.1,7.1,0.3c2.3,1.4,4.5,3.6,6.6,6.5c0.7,0.9,3.6,5.5,4.4,7
	C132.5,55.7,131.8,55.1,131.2,54.5z M128.5,102.1c0.2,1.1-0.5,4.6-0.5,5.8c0-0.6-0.6-1.3-0.6-1.9
	C127.3,105.4,128.5,102.6,128.5,102.1z M130.6,112.8c0.1-0.1,0.3-0.3,0.5-0.5c0.6-0.6,1.5-1.5,2.1-2.2v0c-0.1,1.5-0.2,2.8-0.2,4
	c-0.1,0.6-0.3,2,0.1,2.2l-3.6,2.2l-1.1-2.7L130.6,112.8z M132.5,121.5L132.5,121.5c0.2-0.1,0.3-0.1,0.4-0.1l0,0
	c0.8-0.2,1.6-0.4,2.4-0.8c-0.1,0.1-0.1,0.3-0.1,0.4l0,0.4c-0.8,0.3-1.7,0.8-2.7,1C132.4,122.2,132.5,121.5,132.5,121.5z M137.9,61
	c-0.2-0.2-0.3-0.4-0.5-0.6l0,0c-0.1-0.2-0.1-0.4-0.2-0.5c-0.9-2.5-3.5-7.2-3.5-7.1c0.3,0.1,1.3,0.7,1.5,0.9l0,0
	C135.3,53.8,136.6,57.4,137.9,61C138,61,137.9,61,137.9,61z M130.9,45.2c-1.8-2-2.9-2.6-3.3-2.8l-0.2-0.1c0,0,0.1,0,0.2,0.1l1.4,0.5
	l5.1,4.5C134.1,47.4,133.3,48,130.9,45.2z M106.9,45.4L106.9,45.4c0.5,0.5,1.1,1.4,1.8,2.4h0l-6.1-1.2l0,0l0,0
	c0.1-0.9,0.2-1.7,0.3-2.7C105.2,44.9,106.8,45.4,106.9,45.4z M102.6,63.4c0.2,0.7,0.5,1.5,0.8,2.2c-1.7,0.1-3.6,0.4-5.7,0.6
	c0.8-0.5,1.7-1,2.6-1.5C101.1,64.3,101.9,63.8,102.6,63.4z M100.6,46.1c-1.5-0.5-8.9-0.1-9.8,0.1c-0.1,0-0.9-0.2-1.4-0.3L89,45.9
	c0.5-0.3,0.9-0.6,1.4-0.8l0,0c0.2,0,0.4,0.1,0.5,0.1c0.8,0.1,2.1,0.2,3,0.3c0.8-0.3,2-0.7,2.4-0.9c0.7-0.4,1.6-1,2.7-2.2
	c0.7,0.3,1.5,0.6,2.1,0.9C101,44.4,100.7,45.6,100.6,46.1z M97.6,41.9c-0.7,0.4-1.2,0.7-1.8,0.9c-0.6,0.2-2.1,1-2.8,1.1l0.9-0.6
	c0.8-0.4,1.7-0.7,2.5-1C96.9,42.1,97.2,42,97.6,41.9C97.6,41.9,97.6,41.9,97.6,41.9C97.6,41.9,97.6,41.9,97.6,41.9z M91.2,41.8
	c-0.7,0.4-1.3,0.7-2,1.1l0,0c-0.2,0-0.4-0.1-0.7-0.1c-0.4-0.1-1.1-0.4-2-1c-0.1-0.1-0.3-0.2-0.4-0.2c0.1,0.1,0.3,0.2,0.4,0.2
	c0.2-0.2,0.4-0.4,0.6-0.7c0.7-0.9,1.4-1.8,2.3-2.7c1.4,0.4,3.1,1.1,5,1.9C93.4,40.8,92.4,41.3,91.2,41.8z M85.5,40.3
	c-0.2,0.2-0.3,0.4-0.4,0.7l0,0c-1-0.6-2-1-3-1.2c-0.5-0.2-0.9-0.2-1.4-0.2c-0.5-0.2-1-0.5-1.5-0.8c2.9-0.8,5.4-1.3,8.1-0.7
	C86.6,38.8,86,39.5,85.5,40.3z M85.5,43.4L85.5,43.4c0.5,0.2,1.1,0.5,1.7,0.7c-0.5,0.4-1.1,0.8-1.5,1.2c0,0,0,0,0,0c0,0,0,0,0,0
	l-1.4-0.3C84.7,44.4,85.1,43.9,85.5,43.4z M88.4,50.7c-1.9-0.2,1.8,0.2,2.7,0.3c0,0,0,0,0,0c0,0,0,0,0,0c-0.8,0.4-1.7,1.1-2.8,1.9
	c-0.4-0.1-0.9-0.3-1.3-0.4c-0.5-0.1-0.8,0.1-1,0.5c-0.7-0.1-2-0.6-1.9-0.6C85.3,51.7,86.7,51.1,88.4,50.7z M87.5,56.9
	c-0.4,0.5-1.1,0.5-1.5,1l0,0c-0.3,0-0.7,0.1-1.2,0.2c0.8-0.6,1.7-2.1,2.4-2.6C87,55.4,88.2,56.6,87.5,56.9z M84.6,62.8L84.6,62.8
	c2.5-1.7,3.8-2.6,3.8-2.7c0.2-0.7,0.1-1.2-0.5-1.6c0.1,0,0.1-0.1,0.1-0.2c0.4-0.5,0.8-1,1.1-1.5c0.1-0.1,0.1-0.2,0.2-0.3
	c-0.1,0.1-0.1,0.2-0.2,0.3c0.1,0,0.3,0.1,0.4,0.1c1,1.2,1.8,2.5,2.4,3.8c0,0,0,0,0,0c0,0,0,0,0,0c-1.2-0.1-4,0.9-8.2,3.1
	C84,63.5,84.3,63.2,84.6,62.8z M92.5,61.7c0,0.1,0,0.1,0.1,0.2l0,0c-1.4,1.2-2.7,2.6-3.9,3.9l0,0c-0.3,0.3-0.6,0.5-0.9,0.7
	c-0.2,0.1-0.2,0.1,0,0c-2.3-0.4-4.2-0.5-5.7-0.3c0,0,0,0,0,0c0,0,0,0,0,0c0.1-0.1,0.1-0.2,0.2-0.3C85.1,64.3,88.5,62.9,92.5,61.7z
	 M69.4,53c0.1-0.2,0.5-0.4,1.2-0.3c0.7,0,1.1-0.1,1.3-0.1l1.4-0.2c0.3,0,0.7,0.1,1,0.2c-0.8,0.6-1.7,1.1-2.5,1.8
	c0,0-1.9-0.6-2.7-0.9C69.3,53.2,69.3,53.1,69.4,53z M69.8,55.8c0,0,0.1,0,0.2,0c-0.7,0.6-2.3,2.1-2.3,2.1c0.1-0.5,0.7-2,0.8-2.6l0,0
	C68.9,55.5,69.3,55.6,69.8,55.8z M68.4,73.4c0.1-0.4,0-0.6-0.1-0.7c-0.1-0.1-0.2-0.1-0.2-0.1c1.8-1,3.7-2.1,5.8-3.2l0,0
	c0.1,0.1,0.1,0.2,0.2,0.3l0,0c-0.3,0.2-0.5,0.5-0.8,0.6c-0.8,0.8-1.8,2.4-2.8,4.8l0,0c-0.6,0.5-1.3,1-2.1,1.6
	c-0.1,0.1-0.2,0.1-0.3,0.2c0-0.1-0.7-1-1-1.4C67.1,75.4,68.3,73.8,68.4,73.4z M58.3,46.6L58.3,46.6c-0.3,0.4-0.7,0.8-1.1,1.3
	c-0.1,0.1-0.3,0.5-0.6,1.1c-0.2,0-0.5,0-0.6,0c0.2-0.5,0.3-0.9,0.5-1.2c0.6-0.5,1.3-1.2,2.2-2c0.6-0.6,1.1-1.1,1.6-1.5
	C59.7,45,59,45.8,58.3,46.6z M57.2,59.6c0.1,0,0.1-0.1,0.2-0.2l0,0c0.5,0.2,1,0.3,1.5,0.6l0,0l0,0l0.3,1.1c-2,1.7-3.8,3.2-5.4,4.6
	c0-0.4-0.1-0.7,0-1l0,0l0,0c0.5-1.7,1-3.5,1.6-5.2c0.1,0.1,0.3,0.1,0.5,0.2C56.5,59.7,57,59.7,57.2,59.6z M54.6,53.4
	c0,0,0,0.2-0.1,0.7l0,0c-0.2,0.5-0.4,0.8-0.4,1.1c0,0,0,0.4,0,1.1l0,0c0,0.1,0,0.3,0,0.4c-0.4,1-0.7,2.1-1,3.2
	c-0.6,1.3-1.1,2.9-1.4,4.3c0,0-0.2,0.6-0.2,0.9c-0.1,0.5-0.1,1.2-0.1,2.3c0,0,0,0,0,0.1c0,0.1,0,0.2-0.1,0.3v0
	c-0.3,0.3-0.7,0.6-1,0.9c0.1-1.4,0.4-3.2,0.9-5.3c0.7-3.1,1.1-5,1.3-5.7c0.4-1.3,1.3-3.5,2.8-6.7c0,0,0.2,0,0.4,0
	C55.1,52.1,54.7,53,54.6,53.4z M40.8,74c0,0,0,0.1,0.1,0.1c1.2-2.2,2.1-4.2,2.8-5.9c0,0,0,0,0,0c-0.1,0.3-0.1,0.6-0.2,1l0,0
	c-0.3,1.4-0.7,3.2-1.3,5.5c-0.1,0.3-0.1,0.7-0.1,1l0,0l0,0.2c0,0.2-0.1,0.4-0.1,0.7c0,0,0,0.1,0,0.1l-0.3,4.4c0-0.1,0-0.1,0-0.2
	l-1-0.2c0.1-1.3,0.3-3,0.2-3.8c-0.1-0.9-0.8-1.7-1.2-2.1L40.8,74L40.8,74z M40.8,85.9L40.8,85.9c0.1,1,0.2,2,0.4,2.9l-1-1.3
	C40.4,86.9,40.6,86.4,40.8,85.9z M40.5,82.3c0,0,0-0.4,0.1-1.1c0,0.3,0,0.7,0,1L40.5,82.3z M40.5,95.1c-0.7-0.2-1.4-0.5-2.1-0.8
	c0-0.4,0.1-0.8,0.2-1.2c0.3-1.3,0.3-1.9,0.7-3.2C39.5,90.2,39.9,92.3,40.5,95.1z M42.1,112.9c-0.1-0.3-0.3-0.5-0.4-0.7
	c-1.8-3.8-4.2-9.1-4.2-9.1c0.4,0.4,0.9,0.8,1.3,1.2c0.7,1.3,1.5,2.7,2.5,4l0,0c-0.1,0.1-0.1,0.2-0.1,0.3
	C41,109.4,42.1,112.9,42.1,112.9z M38.3,94.7C38.2,94.7,38.2,94.7,38.3,94.7L38.3,94.7c0.9,0.3,1.6,0.6,2.4,1
	c0.3,1.2,0.6,2.5,0.9,3.9C40.9,97.5,40.5,95.4,38.3,94.7z M36.3,79c-0.4-1.1-0.5-1.7-0.6-2l3.6-2c0,1.7-0.3,6.6-1.1,6
	C37.6,80.6,36.9,79.8,36.3,79z M42.3,102.2c0.4,1.4,0.9,2.7,1.4,4c-0.4-0.3-0.7-0.7-1.1-1C42,104.4,42.3,103.2,42.3,102.2z
	 M44.6,126.2c-0.5-0.6-1.3-1.8-1.7-2.4C43.4,124.1,45,122.8,44.6,126.2z M43.3,98.2c-1.2-3.7-2.2-6.2-3-8.2l1.2,1.1
	c0,0.1,0,0.2,0,0.2c0.3,1.5,0.6,3,1,4.4c0,0.1,0.1,0.2,0.1,0.4c0.1,0.3,0.2,0.5,0.3,0.8c0.3,1.2,1.7,4.6,3.4,8l1.1,1.9h0l1.5,3.4
	c0,0.3-0.1,0.5-0.1,0.8l-2.9-2.4c-0.3-1.1-0.6-2.2-0.9-3.4C44.6,104,43.7,99.3,43.3,98.2z M47.2,101.6c-0.6-1.1-1.5-2.9-2-3.9
	c-0.2-0.5-0.4-0.9-0.6-1.3c-0.5-1.2-0.9-2.4-1.3-3.5c0-0.1,0-0.2-0.1-0.2l1.4,1.3c0.1,0.9,0.3,1.7,0.5,2c0.8,1.4,4.8,7.7,5.2,8.9
	c0.4,1.1,0.5,2.1,1.2,2.8c0,0.1,0,0.2,0.1,0.2c-1.1-1.5-1.9-2.7-1.9-2.7L47.2,101.6z M56.1,121.8c-0.1,0.3-0.1,0.7-0.2,1
	c0.6,0.9,1.3,1.8,2,2.7c-0.6-0.2-1.5-0.5-2.4-0.8l-3-1l-0.2-0.2c-0.3-1.4-0.7-3.6-0.9-5.3C53.1,119.3,54.9,120.7,56.1,121.8z
	 M60.5,123.4c0,0-0.2-1.4,1-0.6c1.2,0.8,3.3,4.5,3.3,4.5L60.5,123.4z M74.7,133.7l-0.3-0.1l0,0L74.7,133.7z M71.7,145.6L71.7,145.6
	c0.2,0.1,0.4,0.3,0.6,0.4c0.2,0.1,0.3,0.3,0.5,0.4c0.8,0.5,1.5,1,2.2,1.5c-1.2-0.3-2.5-0.4-2.7-0.5l-0.4-1.3
	c-0.2-0.2-0.4-0.4-0.6-0.5l0,0C71.5,145.6,71.6,145.6,71.7,145.6z M89.6,145c0,0,1.4,0.3,2.2,0.5c2.5,0.5,4.4,0.8,5.8,0.7
	c0.4,0,5.1,1.5,5.3,1.5c-0.5-0.2-0.5-0.2,0,0c1,0.4,3.7,1.1,3.6,1.1c-1.8,1.1-3.3,2-4.5,2.7c-1.9,1-3.7,1.8-5.4,2.4
	c-1.2-1.3-2.5-2.9-3.9-4.7C91.4,147.5,90.4,146,89.6,145z M102.2,145.4L102.2,145.4L102.2,145.4L102.2,145.4
	c-0.2-0.1-0.4-0.3-0.6-0.4c0.4,0.1,0.9,0.2,1.3,0.3c0.1,0,0.2,0,0.3,0.1c0,0,0.1,0,0.1,0c0,0-0.1,0-0.1,0c-0.2,0-0.5,0.1-0.7,0.1
	c0,0,0,0,0,0c0,0,0,0,0,0C102.4,145.4,102.3,145.3,102.2,145.4z M109.4,135c-0.4,0.3-0.8,0.5-1.2,0.8c-0.9-1.3-1.3-2.1-1.5-2.4
	c-0.8-1.5-1-3.3-0.9-5.3c1.6,0,5.2,0.3,5.3,0.2c0,0.1,0,0.3,0,0.4c0,0.1,0,0.2,0.1,0.3c0.2,0.6,0.6,1,1.3,1.1c0.8,0.2,1.7,0,2.7-0.5
	c0.5-0.2,1.5,0.5,2.2,0.8c-0.9,0.7-2.2,1.6-4,2.8c-0.1-0.2-0.3-0.3-0.4-0.4C112.4,133,111.3,133.7,109.4,135z M113.9,135.9
	c-0.5,0-2,0.2-2.7,0.3c0.2-0.1,1-0.6,1.2-0.7C112.4,135.4,113.6,135.8,113.9,135.9z M117.4,137.4L117.4,137.4c0,0.1,0.1,0.3,0.2,0.4
	l0,0c-0.1,0-0.1,0.1-0.1,0.2c-1.7,2.2-3,3.6-3.8,4.3c-0.2,0.1-0.3,0.2-0.5,0.3c-0.3-0.4-0.6-0.7-1-1.1c-0.8-1.2-1.6-2.3-2.2-3.2
	C111.7,138,116.6,137.4,117.4,137.4z M117.3,128.3c1.1-0.8,2.3-2,3.7-3.4c-0.1,0.9-0.1,1.7-0.3,2.5l0,0c-0.5,0.5-1,1-1.6,1.5
	C118.5,128.8,117.9,128.5,117.3,128.3z M119.1,134.6c0.7-0.6,2.1-2.7,1.9-2.4c0.6,0.4,1.2,0.7,1.7,1.2c-0.3,0.1-0.6,0.2-0.9,0.4
	c-0.2,0.1-0.8,0.4-0.8,0.5C120.3,134.4,119.6,134.5,119.1,134.6z M121,140.2c-0.2,0.1-1.8,0.7-2,0.8c0.1-0.1,1.3-0.9,1.4-1
	C120.4,140.1,120.9,140.2,121,140.2z M121.7,138.4c0.2-0.3,0.6-0.6,0.9-0.9c0.9,0,1.8,0,2.7,0l0,0l0,0.1l0,0
	c-0.4,0.3-0.8,0.6-1.3,0.9c-1,0.7-0.6,0.2-0.9,0.4l0,0C122.6,138.7,122.1,138.6,121.7,138.4L121.7,138.4z M139.6,96.9
	c-0.4-1-1.4-5.7-1.4-5.7s0.8,0.3,0.9-0.1c0.1-0.7,0.2-1.3,0.3-1.9c0.4,1.1,0.7,2.2,0.9,3.3c0,0.1,0.1,0.1,0.1,0.2
	c0.1,0.8,0.2,1.5,0.2,1.5C140.5,94.3,139.6,97,139.6,96.9z M132.4,41.8c0.3,0.4,0.7,1.1,1.1,1.9c-0.8-0.7-1.5-1.3-2.1-1.8
	c-5.2-4.2-11.3-7.3-18.3-9.2c1.3,0,2.7,0.2,4.2,0.5l9.9,2.4l0,0c1,0.5,1.9,1,2.8,1.5c0.1,0.3,0.4,0.7,0.9,1.5
	C131,39.1,131.5,40.1,132.4,41.8z M126.6,35.6c-0.1,0.1-0.1-0.1,0-0.6c0-0.1,0.1-0.2,0.2-0.3c-0.1,0.1-0.2,0.2-0.2,0.3
	C126.5,35.4,126.5,35.6,126.6,35.6z M104.9,33.7c-0.9,0.5-2.1,2-2.3,3c-0.2,0.6-0.3,1.1-0.3,1.5l0,0c-2-0.4-4-0.8-5.9-1.1l0,0
	c-1.1-0.6-2.3-1.1-3.5-1.5c-0.3-0.1-0.6-0.2-0.9-0.3c0.3,0.1,0.6,0.2,0.9,0.3c1.6-1.2,3.4-2.3,5.4-3.4
	C100.5,32.6,105.4,33.5,104.9,33.7z M98.1,30c-1.2-0.6-2.8-1.2-4.7-2.1c1.9,0.1,4.4,0.2,7.5,0.5C100,28.9,99.1,29.4,98.1,30
	C98.4,30.1,98.4,30.1,98.1,30z M90.6,35.1c0.3,0.1,0.6,0.2,0.9,0.3C91.2,35.3,90.9,35.2,90.6,35.1c-0.7-0.2-1.3-0.3-2-0.5
	c-3.3-0.7-10.1,0.2-10.1,0.2c-0.5-0.1-1-0.1-1.4-0.1c0.3-0.2,0.6-0.3,0.9-0.5c4-1.8,9.6-2.5,16.7-2.2C93.1,33.1,91.8,34.1,90.6,35.1
	z M76.7,39.5c-0.6,0.1-1.1,0.2-1.6,0.3c-1-0.5,0.9-0.4,1.3-0.6c0,0,0,0,0,0c0,0,0,0,0,0C76.5,39.2,76.6,39.4,76.7,39.5z M79,41.1
	c0.3,0.1,0.6,0.2,0.9,0.3c0.9,0.2,1.4,0.3,1.7,0.2c0.1,0,0.1,0,0.1,0c0.5,0.2,1.2,0.5,2.1,1c0.2,0.1,0.3,0.1,0.5,0.2
	c-0.2-0.1-0.3-0.2-0.5-0.2c-0.5,0.8-1.2,2.2-1.5,2.2c-1.7-0.2-3.6-0.3-5.6-0.3c-1.7,0-3,0-4,0.1c-0.2,0.1-0.4,0.1-0.6,0.2
	c0.2-0.1,0.4-0.1,0.6-0.2c1.4-0.4,2.8-0.7,4.3-0.8c1.1-0.1,1.6-0.3,1.7-0.3c0.1-0.4,0.1-0.5,0-0.5l-0.1,0.2c0-0.2,0-0.3-0.1-0.4
	c0-0.1-0.2-0.2-0.5-0.3c-2.1-0.5-4.3-0.4-6.5,0.3C73.6,41.3,76,40.8,79,41.1z M71,38L71,38c-0.9,0.5-1.8,1.1-2.7,1.7l0,0
	c-0.7-0.1-1.9-0.2-2.5-0.1c1.6-0.9,4.4-2.2,6.1-2.7C71.8,36.9,71.1,37.8,71,38z M60.6,36.9c0,0-0.1,0-0.1,0c0.2-0.1,0.4-0.3,0.5-0.4
	c1.2-0.8,2.7-1.3,4.4-1.6c1.4-0.3,2.5-0.6,3.3-0.8c-0.7,0.6-1.1,0.9-1.3,1.1C67.7,35.2,63.1,36.1,60.6,36.9z M61.9,40.9
	c-1.9,0.9-3.7,2.4-5.3,4.4c-1.6,1.2-2.5,2.1-2.6,2.6c0,0,0.1,0.3,0.4,0.7c-0.1,0.2-0.2,0.3-0.3,0.5c-0.8,0-1.5,0.1-2.2,0.2l0,0
	c0.2-1,0.5-2.1,0.7-3.2c0.4-1.6,1.7-3.1,4.1-4.5C57.8,41,60.4,41.2,61.9,40.9z M51.5,43.5c-0.3,1.3-0.5,2.5-0.8,3.7
	c-0.3-0.3-0.6-0.4-1.1-0.5c-1.6-0.4-3.1,0.1-4.8,1.3c0.2-0.3,0.5-0.6,0.7-0.9c1.6-1.9,6.7-5.4,6.8-5.3
	C51.9,42.2,51.7,42.8,51.5,43.5z M31.7,81.6c0.3-1.4,0.6-2.6,0.8-3.7c0.5-0.2,1-0.4,1.6-0.6c0.1,0.9,0.7,2.6,0.8,2.6
	c0,0-1.4,2.1-1.9,4.6c-0.4,1.6-0.2,3.8,0.3,6.8c0,0.2,0.1,0.6,0.1,0.6c-0.2-0.1-0.4-0.2-0.6-0.4c-0.6-1.8-1.3-3.7-1.9-5.6
	c-0.1-0.5-0.3-1-0.4-1.4C31,83.4,31.6,82.3,31.7,81.6z M32.8,96c0.2,0.2,0.6,0.1,0.6,0.1c0.1,0-0.1-2.6-0.4-3.7
	c0.1,0.1,0.4,0.3,0.5,0.4c0.2,1,0.6,2.8,0.6,2.8l-0.5,2.5c-0.4-0.3-0.9-0.7-1.3-0.9l0,0c-0.1-0.5-0.3-1.1-0.4-1.6
	c0,0-0.1-0.6-0.1-0.9C32.7,94.7,32.8,96,32.8,96z M33.3,99.6c0,0,0.7,3.3,0.9,4.4c0.1-0.8,0.1-3.2,0.2-3.6c0.4,0.3,0.8,0.7,1.3,1
	c-0.2,4.5,0.2,8.9,1.2,13.2c0,0.1,0,0.4,0.1,0.8c-0.7-0.9-1.2-1.9-1.6-3.1c-0.4-1.2-0.9-3.4-1.3-6.5c-0.1-0.5-0.2-1.1-0.3-1.7
	c-0.2-1.1-0.4-2.3-0.7-3.6c-0.1-0.4-0.2-0.8-0.3-1.2C32.8,99.3,33.2,99.6,33.3,99.6z M38.9,120.6L38.9,120.6l1.3,2.8
	c-1.5-1.2-2.7-2.6-3.8-4.3c-0.4-0.6-0.8-1.2-1.1-1.7l0,0c-0.7-1.1-1.2-2.1-1.6-3C35.2,116.7,36.9,118.7,38.9,120.6z M35,120.2
	c1,1.6,1.7,2.5,2.2,3c0.5,0.4,1.1,1.1,1.8,2c0.1,0.1,0.2,0.1,0.4,0.2c-0.2,0.5-0.5,1.8-0.7,2.4C38.6,127.9,35.9,122.8,35,120.2
	c-0.1-0.1-0.2-0.2-0.2-0.3C34.9,119.9,35,120.1,35,120.2z M39.4,131.9C39.4,131.9,39.4,131.9,39.4,131.9
	C39.4,131.9,39.4,131.9,39.4,131.9c2.4,2.8,5.1,5.2,8.3,7.2c-1.2-0.3-2.3-0.6-3.1-0.8h0c-0.6-0.2-1.1-0.3-1.4-0.4
	c-1.8-0.7-3.3-1.8-4.5-3.2C38.9,133.8,39.1,132.9,39.4,131.9z M44.4,111.9c0.9,1,2,2,3.1,3c0,0,0.5,0.4,1.2,1
	c0.1,1.9,0.1,3.2,0.1,4.1c-0.3-0.5-1-1.8-1.2-2.1C46.4,115.5,45.3,113.5,44.4,111.9z M51.9,132L51.9,132c-1-0.6-1.9-1.3-2.8-2
	c-0.2-0.9-0.8-2.1-0.9-2.7C48.1,127.3,50.8,130.7,51.9,132z M50,133.6c1.8,1.1,3.8,2.1,6.1,2.9c1.2,1.2,2.4,2.2,3.7,3.1
	c0.1,0.2,0.3,0.3,0.4,0.5c-1.7,0.2-3.2,0.3-4.5,0.4h0c-1.3-0.6-2.7-1.2-3.9-1.8C51.7,138.4,50.5,135.6,50,133.6
	C49.9,133.5,49.9,133.5,50,133.6z M55.6,143c2,0.7,4.1,1.3,6.4,1.8c0.3,0.1,0.5,0.1,0.9,0.2l0,0c0.1,0.4,0.3,0.8,0.5,1.2
	c-0.4-0.1-0.8-0.2-1.2-0.3c0,0-0.1,0-0.1,0c-1.3-0.3-2.6-0.5-3.8-0.6l0,0C57.3,144.6,56.5,143.8,55.6,143c-0.2-0.1-0.3-0.3-0.5-0.4
	C55.3,142.7,55.4,142.8,55.6,143z M61,147.7C60.7,147.6,60.7,147.6,61,147.7c0.1,0,0.2,0.1,0.3,0.2c1.1,0.9,1.8,1.2,2.6,1.7
	c0.1,0.1-0.1,0.7-0.2,0.6c-0.8-0.5-2.1-0.9-3.2-1.8C60.3,148.3,61.1,147.8,61,147.7z M63.8,134.5c-0.3-1.2-0.4-1.8-0.4-2
	c0-0.4,0-0.8,0-1.3c0,0,0,0,0,0c0,0,0,0,0,0c1.3,1.2,4.4,3,4.3,3.2c-0.4,1-1,2.7-1.3,3.6c0,0,0,0,0,0c-0.7-0.6-1.4-1.1-2-1.6
	C64,136.2,64,135.2,63.8,134.5z M64.5,142.3c0.1,0.2,0.8,0.9,1,1.1c0,0.1,0,0.2,0,0.3c-0.3-0.1-0.7-0.2-1.1-0.3
	c-0.1-0.3-0.1-0.5-0.2-0.8c-0.1-0.2-0.1-0.4-0.1-0.5C64.3,142.2,64.4,142.2,64.5,142.3z M65.8,145.5c0.1,0.5,0.3,1.1,0.5,1.6
	c-0.4-0.1-0.9-0.3-1.3-0.4c-0.1-0.5-0.2-0.9-0.2-1.3l0,0C65.1,145.4,65.5,145.5,65.8,145.5z M68.4,150.2c1.3,1.4,5.7,4,5.8,4.1l0,0
	c0.2,0.2,0.5,0.4,0.7,0.6c0.1,0.1,0.1,0.1,0,0c-2.7-0.9-5.1-1.9-7.2-2.9c-0.4-0.3-1.9-1.8-2.2-2.1c-0.1-0.3-0.2-0.6-0.3-0.9
	C66.4,149.4,67.5,149.8,68.4,150.2z M74.1,152c-0.3-0.2-0.6-0.5-0.8-0.7c-1.6-1.3-2.9-2.3-3.9-2.9c0,0,0,0-0.1,0l0,0
	c-0.7-0.9-1.2-1.8-1.5-2.7c0,0,0.1,0,0.1,0c0,0,0,0,0,0c3.3,3.1,7.1,5.7,11.2,7.8c-0.3,0.1-0.6,0.2-0.7,0.2
	C76.7,153.2,76,153.5,74.1,152z M75.3,148.8c-0.1-0.1,0.4-0.2,0.9-0.2c0.2,0.1,0.4,0.2,0.5,0.3c3.9,2.4,7.5,3.9,10.7,4.6
	c0.9,0.2,2,0.1,3-0.3c1-0.4,1.5-0.9,1.6-1.4l0,0c0.8,1,1.6,1.9,2.5,2.8c-2.6,0.7-5,1-7.4,1l0,0c-0.2-0.1-0.4-0.1-0.7-0.1
	C84.3,154.9,80.6,152.7,75.3,148.8z M107.2,156.1c0.5-0.5,1-1,1.5-1.5l0,0c0.5,0.1,1.1,0.2,1.7,0.4c1.1,0.2,2.6,0.2,4.4-0.1
	c0.3-0.1,0.3-0.1,0,0c-1.3,0.6-3.1,1.2-5.4,1.7c-1.1,0.2-2.1,0.6-3.1,1.1C106.9,157.3,107.1,155.9,107.2,156.1z M110.9,147.9
	c-0.2,0-0.4-0.1-0.6-0.1h0c0.7-0.4,1.3-0.8,2-1.2c0,0,2-0.9,2.2-0.9c0.4,0.1,0.7,0,0.9-0.4c2.7-1.1,7.2-3.9,8.3-4.5
	c0.7,0.1,1.5,0.1,2.3,0.2c-1.3,1.9-2.7,4.3-4.3,7c-0.1,0.2-0.3,0.6-0.4,0.9l0,0C118.3,149.1,114.9,148.8,110.9,147.9z M127.7,150.3
	L127.7,150.3l0.2,0.1c2.8,0.6,5.6,0.5,8.4-0.3c-0.8,1.2-2.6,1.5-5.5,1.1c-1.3-0.3-2.4-0.6-3.3-0.8
	C127.7,150.3,127.7,150.3,127.7,150.3z M130.5,148.7L130.5,148.7c3.9-2.5,6.8-5.3,8.7-8.5c0,0,0.1-0.1,0.1-0.1c0,0-0.1,0.1-0.1,0.1
	c0.2-0.1,0.3-0.2,0.5-0.3c-0.1,0-0.1-0.1-0.2-0.1c0.1,0,0.1,0,0.2,0.1c0.2,0.1,0.5,0.2,0.7,0.3c-0.4,1.2-1,2.8-1.8,4.8
	c-0.3,0.7-0.6,1.3-0.8,1.9C135.6,147.7,133.2,148.3,130.5,148.7z M139.4,127.1L139.4,127.1L139.4,127.1c0.4-0.7,0.9-1.3,1.5-1.9
	c0.2,1,0.1,1.9,0,2.7c0,0.2-0.1,0.4-0.2,0.5C140.2,128.1,139.8,127.6,139.4,127.1z M141.2,136L141.2,136c0.1,0,0.1,0,0.1,0
	c0,0.2,0,0.4-0.1,0.6c0,0,0,0,0,0.1c0,0,0,0,0-0.1c-0.1,0-0.1,0.1-0.1,0.1c-0.1-0.1-0.2-0.1-0.2-0.1l0,0c0.1-0.2,0.1-0.4,0.2-0.6
	l0,0l0,0C141.1,136.1,141.1,136.1,141.2,136z M141.4,100.4c1.9-4.5,0.7-4.2,1.4-4.9l1.1,1.6l-0.7,3c-0.2,0.6-0.4,1.2-0.6,1.8
	c-0.1-0.2-0.2-0.3-0.2-0.4c0,0,0-0.1-0.1-0.1c0,0-1.1,4-1.1,4.1C141.3,105.2,141.4,100.6,141.4,100.4z M142.7,78.4
	c0.3,0.5,1.3,2.6,1.3,3.7c0,3.3,0.9,2.2,0.2,6.6c-0.1,0.3-0.3,0.7-0.4,1c-0.4-1.3-0.7-2.9-0.8-4.9c0-0.3-0.4-1-0.5-2.5
	c0-0.1-0.1-0.9,0-1.1C142.4,80.9,141.4,71.1,142.7,78.4z M142.9,113.4c0-0.2,0.1-0.4,0.1-0.5c0.5,0.6,1,1.2,1.5,1.7
	c0.5,0.5-0.3,0.2-0.4,0.3C143.7,114.4,142.8,114.1,142.9,113.4z M143.4,68.6c-0.3-1.2-0.6-2.4-0.9-3.6l0,0l0,0c-0.5-1.9-1.5-5-1.5-5
	c1.3,1.4,2.6,2.8,3.8,4.2l0,0c0.5,1.1,0.9,2.2,1.3,3.4c0,0,0,0,0,0c-0.1,0.6-0.1,1.2-0.2,1.8c-0.1,0.9,0,1.9,0.1,2.8
	c-0.3-0.2-0.6-0.4-0.9-0.6c0,0.1,0.1,0.2,0.1,0.2c0-0.1-0.1-0.2-0.1-0.2C144.5,70.5,144,69.5,143.4,68.6z M144.9,105.7
	c0.5-1.3,1.1-2.7,1.5-4.2c0,0,0,0,0-0.1c0.1,0.2,0.2,0.4,0.4,0.6c0.1,0.2,0.2,0.4,0.3,0.5c0,0.1,0.1,0.1,0.1,0.2
	c0-0.1-0.1-0.1-0.1-0.2C146.4,103.7,145.7,104.8,144.9,105.7C144.9,105.8,144.9,105.8,144.9,105.7z M146.3,106.9
	c0.7-0.8,1.3-1.7,1.8-2.5c0.8,1.4,1.3,2.6,1.6,3.4c0.1,0.5,0.2,1,0.4,1.6c-0.5,0.6-1.8,2-2,1.7c-0.7-1-1.5-2.8-2.1-3.8
	C146,107.2,146.1,107.1,146.3,106.9z M148.5,73.8c0,0,0.2-4.6,0.1-5.4c-0.1-0.9-0.3-1.8-0.6-2.6l0,0c0.2-1.1,0.3-2.1,0.4-3
	c0.5,1.4,1.1,2.9,1.1,4.1c0,0.8,0.2,4.3-0.3,5.4C149,72.2,148.6,73.8,148.5,73.8z M150.1,94.4c-0.2,1.5-0.4,2.7-0.6,2.8
	c-0.1,0.2-0.2,0.5-0.2,0.7l-1.1-2.8l0.9-4.7C149.1,90.5,149.8,93.4,150.1,94.4z M151.1,132.9c-0.3,1.1-2,7.3-2,6.7
	c-0.1-1.7-0.5-3.7-0.8-4.5l0,0c0.7-0.5,1.2-0.9,1.7-1.2C150.3,133.6,150.7,133.3,151.1,132.9z M150.2,100.3c0.1-0.3,0.3-0.7,0.4-1
	c0.1,0.8,0.1,1.6,0.2,2.5C150.6,101.4,150.4,100.8,150.2,100.3z M150.8,84c-0.5-0.8-0.7-1.9-1-2.9l-0.5-2.4c0,0,0.1-0.2,0.3-0.4
	c0.1-0.2,0.3-0.5,0.4-0.7l0.2,0.1c0.2,0.6,0.7,2.6,1,4c0,0-0.1,0-0.1-0.1c0.1,0.1,0.1,0.2,0.1,0.3c0.1,0.6,0.2,1.1,0.2,1.1l0.2,0.9
	C151.4,83.8,150.9,84.2,150.8,84z M151.4,74.8c-0.4-1.2-0.7-2.1-1-2.8c0,0,0,0,0,0c0.7-2.5,1-4.4,0.9-5.5c-0.3-2.6-1.1-5.6-2.6-8.8
	c0,0,0,0,0,0c0,0,0,0,0,0c0-0.2,0-0.5,0-0.8c0-0.1,0-0.2,0-0.2v0l0,0c0.9,0.6,1.7,1.2,2.4,1.8c0.2,0.5,0.6,1.1,1,2
	c0.6,1.4,1.9,2.9,3.8,4.6c0,0.5,0.2,3.4,0.2,4.9c-0.2-0.1-0.3-0.1-0.5-0.2c-1.1-0.2-1.8,0.2-2,1.3c0,0,0,0.5,0.2,1.3L151.4,74.8z
	 M151.9,76.1c1-1.1,2.4,0.6,3.7,3c0,0.3,0,0.7,0,1.1c0.1,1.5,0.3,3.3,0.4,4.3c0.1,1.1-0.5,2.8-0.2,4s0.3,2.8,0.3,2.8
	c0.1,0.6,0.2,1.3,0.3,1.8c-0.2,0.9-0.4,1.9-0.6,3c-0.2-1.2-0.4-2.3-0.6-3.5c0,0-0.1,0-0.1,0c-0.2-2-0.5-7.5-0.5-7.5s0.7,0,0.6-0.8
	c-0.1-0.8-1.9-5.5-3.1-6.3c0,0,0,0,0,0l-0.4-1.7L151.9,76.1z M156.7,97.7l1.9-2.5l-2.2,14.6l-0.8,0.8l1.4-11.1L156.7,97.7z
	 M161.2,78.9c0.3,0.4,0.6,0.8,0.8,1.2l0,0c-0.2,0.4-0.4,1.8-0.4,2l-1.7-0.7C159.9,81.4,161.2,79.6,161.2,78.9L161.2,78.9z
	 M161.6,75.2C161.4,75,161.4,75,161.6,75.2c0.1-0.5,0.1-1.1,0.3-1.6c0.1-0.4,0.1-0.7,0.1-1c0.1,0.3,1.6,2.9,2.2,4.5
	c-0.1,0.1-0.5,0.4-0.5,0.4C164,78,162.3,75.8,161.6,75.2z M160.1,94.4c0.7,2.9,1.2,5.8,1.5,8.7c0.1,0.9,0.2,2,0.3,3.2
	c-1.1,0.8-3.4,2.7-3.3,2.2C159.3,103.8,159.8,99.1,160.1,94.4z M160.2,111.7c-0.3,0.8-0.7,1.9-1.5,3.2c-0.5,0.9-1.1,1.6-1.5,2
	l1.1-5.8v0c0.8-0.4,1.6-0.8,2.4-1.2l0,0C160.5,110.5,160.3,111.1,160.2,111.7C160.2,111.7,160.2,111.7,160.2,111.7z M162.3,112
	c0.1,0.5,0.3,0.9,0.3,1.1c-0.5,1.2-1.3,3.1-2.1,4.2c-0.5,0.2-1,0.5-1.5,0.7C161.1,116.5,161.9,113.5,162.3,112z M158.8,73L158.8,73
	c-0.4-0.7-0.7-1.3-1.1-1.8c-0.1-1.8-0.3-3.4-0.6-5v0c0.1,0.1,0.1,0.2,0.3,0.2c0.3,0.2,0.6,0.5,0.8,0.7c1.2,2.4,1.8,4.5,1.8,6.6
	C160.1,73.9,159.1,73.2,158.8,73z M153.4,118.4c0.3-1.5,1-2.7,1.2-4.1c0.2-1.4,0.5-1.4,0.5-1.4l0.8-0.9c0,0-0.2,5-0.4,5.3
	C155.3,117.5,153.1,119.9,153.4,118.4z M152.7,95.2c-0.1-0.4-0.3-1.6-0.5-3c0.4-1,0.6-2,0.8-3c0,0.1,0.1,0.1,0.1,0.2
	c0.7,3.5,1.4,8.7,1.6,11.7C154.6,101.2,153.5,98,152.7,95.2z M153.5,123.4c-0.4,0.2,1.2-1.4,1.8-1.9c1.8-1.7,4.7-3.1,4.7-3
	c0-0.1-2.2,2.6-3.8,4.3c-1.6,1.6-2.5,2.1-3.9,3.4C151,127,153.4,123.8,153.5,123.4z M165.8,100.6
	C165.7,102.4,165.7,102.4,165.8,100.6c-0.2,0.9-0.4,1.8-0.6,2.8c-0.2,0.1-0.3,0.3-0.4,0.4c-1.2-4.7-2-8.5-2.5-11.4
	c-0.3-1.3-0.5-2.6-0.7-3.9c0,0,0,0,0,0c0-0.9,0.2-2.2,0.2-2.2c0.1-0.4,1.1,1.9,1.5,2.7C165.3,92.8,166.2,96.7,165.8,100.6z
	 M166.8,91.3c-0.1-0.5-0.4-2-0.6-2.3h0l0,0c-1-1.8-3.7-5.3-3.6-5.7c0.2-0.5,0.4-1,0.5-1.4c0.5,0.9,1.1,1.8,1.5,2.8
	c0.8,1.5,1.6,2.3,2.1,3.7l0.3,0.9C167.2,89.6,166.9,90.9,166.8,91.3z M167.4,65c0.8,0.6,1.6,1.2,2.4,1.8c3,2.1,3.8,3.5,6.4,4.1l0,0
	c-0.8,1.8-1.5,3.9-2,6.3c-0.1,0.6,0,1-0.3,3.4c-0.1,0.7,0.3,2.6,0.1,3.5c-0.4,2.1-1,5.8-1.4,7.3c-0.1-1.1,0-4.4-0.2-5.7
	c-0.3-2.2-1.1-5.5-2.4-9.7c-1.3-4.4-2.1-7.6-2.4-9.7C167.5,65.9,167.2,64.8,167.4,65z M167.2,73.2c0,0,0-0.1,0-0.2
	C167.3,73.1,167.2,73.2,167.2,73.2c0.3,1.1,0.6,2.1,0.9,3.3c1.2,4.5,2.1,7.6,2.4,9.6c0.6,3.5,0.7,6.5,0.1,9.1c-0.2,1-0.5,2-0.8,3
	c-0.1,0.1-0.1,0.2-0.2,0.2c-0.1-1.7-0.2-4.2-0.5-7.6c-0.1-0.4-0.1-0.8-0.1-1.1h0c-0.3-2.2-1-4.4-2-6.6c-0.2-0.4-0.8-3.5-1.4-5.2
	C166.3,76.7,166.8,75.1,167.2,73.2z M167.2,62.5c-0.6-0.4-1.1-0.8-1.6-1.1C166.1,61.7,166.6,62.1,167.2,62.5z M149.2,48.3
	c0.1-0.3,0.2-0.5,0.2-0.8c0,0,0-0.1,0-0.2c0.1-0.4,0.1-0.9-0.1-1.4c0.5,0.6,1,1.3,1.6,1.9l0,0l0,0c0.1,0.1,0.6,1.1,0.7,1.2
	c5.5,6.5,9.6,10.4,13.2,13.6c0.2,0.2,0.5,0.5,0.7,0.7l0,0c0,0.9,0.2,1.9,0.3,2.9c-1.3-2-3.1-3.3-5.7-3.9c-1-0.2-1.6-0.1-1.7,0.5
	c-0.2,0.5-0.1,0.7-0.1,0.5c3.6,2,5.9,3.7,6.8,5c0.6,1,0.8,2.3,0.4,4.1c-0.2,1-0.5,2-0.9,3c-0.2-0.5-0.4-1-0.7-1.6
	c-0.9-2.1-1.9-4.1-3-5.9c-0.6-1.4-1.5-2.9-2.6-4.4c-0.7-1-1.5-1.9-2.4-2.8C154.6,54.6,152.3,50.5,149.2,48.3L149.2,48.3z
	 M143.6,40.3c-2.5-0.3-3.8-0.2-4,0.4c-0.1,0.4,0.1,0.7,0.6,1.1c1.8,0.1,3.4,0.4,4.9,0.6c0.1,0.2,0.3,0.3,0.4,0.5
	c1,1.4,1.8,2.9,2.4,4.3v0c0.1,0.2,0.1,0.4,0.2,0.5l0,0l0,0c-0.7-0.3-1.4-0.6-2.1-0.7c-0.4,0-0.8,0.1-0.9,0.1l-0.2,0.7
	c5,3.9,8.2,7.7,9.8,11.7c-1.7-1.6-3.7-3.1-6-4.5c-0.9-2.4-3.3-6.1-5.8-9.3l-0.1,0c-0.3-0.3-0.5-0.6-0.8-0.9c-3.7-4.5-7.4-7.6-11-9.2
	c0.6,0.1,2.2,0.2,4.8,0.2C138.8,36.3,141.3,37.9,143.6,40.3z M135.7,30.5c1.1,0.9,2.1,2.1,3.3,3.3c0.1,0.1,0.3,0.3,0.5,0.5
	c0.3,0.4,0.8,1,1.4,1.6c-1.6-1.1-3.2-1.7-5-2.1c-1.5-0.3-2.4-0.4-2.7-0.1c-0.3,0.2-1.3,0.1-3-0.2c-1.4-0.9-2.6-1.7-3.7-2.3
	c1.4-0.1,2.6-0.2,3.8-0.5c0.5-0.1,1.1-0.2,1.7-0.2C133.1,30.4,134.3,30.4,135.7,30.5z M93.8,25.9l0.2,0c0.7-0.4,1.6-0.9,2.6-1.4
	c2-0.8,4.6-1.3,7.8-1.4c6-0.2,14.3,0.9,24.7,3.2c0.9,0.2,2,0.7,3.2,1.5c-0.3,0-0.6,0-0.9,0c-0.9,0.1-1.9,0.4-2.8,1.1
	c-0.1,0-0.1,0-0.1,0.1c-0.9,0.5-1.9,0.8-3,0.9c-0.5,0-1.1,0-1.7,0c-0.7-0.4-1.7-0.9-3-1.7c-1.4-0.9-2.9-1.5-4.7-1.9
	c-2.7-0.6-4.2-0.3-4.5,0.9c0,0,0.2,0.4,0.6,0.9c-1.1-0.1-2.3-0.2-3.7-0.3c0.5-0.2,0.9-0.4,1.4-0.5l-0.1-0.8c0-0.1-0.2-0.1-0.5-0.2
	c-1.3-0.3-3.2,0.1-5.6,1.1l0,0c-2.5-0.3-5.4-0.3-7.2-0.4l0,0c-1.7-0.3-2.9-0.4-3.2-0.5c0.3-0.1,0.5-0.3,0.8-0.4L93.8,25.9z
	 M87.5,28.7c2,0.8,4,1.4,6.1,2c-6.1,0.3-11,0.9-14.6,2.1l-1.2-0.2c0.4-0.2,0.7-0.4,1-0.5l0,0C81.5,30.9,84.4,29.7,87.5,28.7z
	 M73.1,32.3c0.1-0.1,0.8-0.7,1.2-0.9c0.1,0,6.1-2.2,8.7-4.5c0.8,0.4,1.5,0.7,2.3,1c-1.4,0.5-3.1,1.2-5.2,2.1
	c-1.4,0.6-2.6,1.1-3.7,1.6c0,0-1.2,0.5-1.7,0.8C74.5,32.5,73.6,32.3,73.1,32.3L73.1,32.3z M72.7,33.5c-0.8,0.4-0.7,1-0.8,1.3
	c0,0-0.5,0-0.5,0c-0.1,0-0.2,0-0.2,0c0.3-0.4,0.6-0.8,1-1.2C72.3,33.5,72.5,33.5,72.7,33.5z M44.3,34.1L44.3,34.1
	c0.7-1.5,1.4-2.8,2-4c4.1-0.6,9.5-0.4,16.2,0.4c2.7,0.3,5.7,0.7,8.8,1.3c0.1,0,0.2,0,0.3,0.1c-0.2,0.2-0.5,0.4-0.7,0.6l0,0
	c-7.7,0.2-14.4,2.6-20.1,7.1h0c-0.9-0.1-1.9-0.1-2.9-0.1c-1.8-0.1-3.7-0.1-5.9-0.2c-0.2,0-0.4,0-0.6,0
	C42.5,37.3,43.4,35.7,44.3,34.1z M35.5,36.6c0.8-1.6,1.8-2.8,3-3.7l0,0c0.3-0.3,0.7-0.6,1.1-0.8c0.8-0.5,1.8-0.9,3-1.2
	c0,0,0,0.1,0,0.2c-0.3,0.8-0.6,1.7-0.8,2.5l0,0c-0.8,2.5-1.4,4.4-1.9,5.7c-2.5,0.2-4.8,0.7-6.7,1.6C33.6,40.2,34.4,38.7,35.5,36.6z
	 M24.2,58.2L24.2,58.2L24.2,58.2c2-9,5.6-14.5,10.9-16.6l0,0c1.2-0.5,2.6-0.8,4-0.9c-0.1,0.2-0.2,0.3-0.2,0.5
	c-0.2,0.2-0.4,0.6-0.6,0.9c-1.2,1.7-3.4,4.7-6.3,8.5c-1.6,2.1-2.8,4.9-3.5,8.2c-0.1,0-0.2,1.8-0.5,3.5c-0.5,0.6-1,1.3-1.5,2
	c-0.3,0.4-0.6,0.9-0.9,1.3c-0.6-2.2-1.1-4.1-1.5-5.9C24,59.2,24.1,58.7,24.2,58.2z M24.4,67.8c-0.1,0-0.7,0.3-0.7,0.3
	c-0.3-0.9-0.5-1.7-0.6-2.6c0-0.2,0-0.5,0-0.8L24.4,67.8z M23.5,72.1c0.4,0.3,0.7,0.6,1.2,0.9c0,0.1,0.1,0.1,0.1,0.1l0.8,3.9
	c0,0.1,0.1,0.2,0.1,0.3c-0.5-1-1-1.8-1.5-2.6c-0.4-0.6-0.7-1.2-1.1-1.8C23.2,72.6,23.4,72.3,23.5,72.1z M34.1,124.9
	c-1-3-2-5.7-2.8-8.4h0c-1.1-3.3-2.2-6.4-3.2-9.2c-0.7-1.9-2.6-4.8-5.8-8.6c-0.2-0.2-0.3-0.4-0.5-0.6c-0.8-1-2.2-3.1-2.2-3.1
	c-0.9-1.5-0.8-3.5-0.7-4.3c0.2-1.9,0.4-3.2,1.1-6.7c0.8-3.3,0.7-4.4,0.7-4.7c0.1-0.4,0.5-2.3,0.7-2.8h0c0.1-0.3,0.2-0.5,0.3-0.8
	c0.3,0.3,0.6,0.7,0.8,1.1l0,0c0.3,0.4,0.6,0.8,0.9,1.2c0.3,0.3,0.5,0.7,0.7,1c0.2,0.3,0.4,0.7,0.7,1c-1.1,1.1-1.9,2.7-2.4,4.8
	c-0.5,2.4-0.5,4.3,0.1,5.7c0.4,1.1,3.2,3.2,5.1,4.7c0,0.2,0,0.3,0,0.4c0.4,4.2,2.5,10.5,2.7,11.8c0.2,1.3,0.4,2.6,0.7,3.9l0,0
	c0,1.8,0.3,4,1,6.5c1,3.6,2.5,7,4.5,10.2c0.5,0.8,1,1.6,1.6,2.3c-0.2,0.8-0.4,1.6-0.6,2.5C36.4,130.9,35.3,128.3,34.1,124.9z
	 M39.8,148.4c-0.2-0.7-0.4-1.3-0.6-1.8c0,0-0.3-0.7-0.4-0.9c-0.8-1.7-1.2-3.7-1-5.8c0.1-0.5,0.2-1.4,0.4-2.5c0-0.2,0.1-0.4,0.1-0.5
	l0,0c0-0.1,0.1-0.3,0.1-0.4c0.2,0.2,0.5,0.4,0.7,0.6h0c2.1,1.8,4.6,3,7.4,3.6c1,0.2,2,0.4,2.9,0.6l0,0c0.8,1.2,1.8,2.3,2.8,3.4
	c0.2,0.2,0.3,0.3,0.5,0.5c-1.7,0.1-3.2,0.4-4.7,0.8c-0.5,0.1-0.9,0.3-1.3,0.4c-0.8,0.3-1.6,0.6-2.3,1l0,0c-0.1,0-0.3,0.2-0.4,0.2
	l0,0c-1.3,0.9-2.4,2.1-2.7,3.3C40.6,150.2,40.1,149.4,39.8,148.4z M69.1,160.6c-2.4,0.1-5-0.1-7.8-0.8c-0.4-0.1-1.3-0.5-2.7-1.2
	c-1.6-0.8-2.6-1.5-3.3-1.9c-1.8-1.6-3.2-2.5-4.4-2.7c-0.7-0.1-1.6,0-2.6,0.4c-1,0.4-1.7,0.5-2.4,0.3c-0.9-0.2-2-1-3.3-2.2
	c0.5-1.3,2.1-2.7,4.7-4v0c0.2-0.1,0.9-0.5,1-0.5c2-0.9,3.8-1.5,5.4-1.6c0.3,0,0.3,0,0,0c3.2,3,6.9,5.7,11.2,8c0,0,0,0,0-0.1
	c0,0,0,0,0,0.1c0.2,1.3,0.8,2.4,1.7,3.4c0.8,0.9,2,1.9,3.7,2.7C69.9,160.5,69.5,160.5,69.1,160.6z M74.5,159.6
	c-1.4-0.8-2.7-1.6-3.7-2.5c1.5,0.6,4,0.6,5.7,1.3C75.7,158.9,74.8,159.5,74.5,159.6z M87.2,164c-4-0.9-7.4-2-10.3-3.3
	c0.7-0.3,1.3-0.7,1.8-1l0,0h0c2,0.6,4.1,1.1,6.3,1.6c0.6,0.1,1.3,0.2,1.9,0.4c0,0,0,0,0,0c0.4,0.8,1.1,1.9,1.9,2.6
	C88.3,164.3,87.7,164.1,87.2,164z M88.8,158.9c-0.4-0.1-1.7-1.7-2.2-1.8c0,0,0.2,0,0.4,0c0.1,0,0.1,0,0.2,0c0,0,0.1,0,0.2,0.1
	c0.1,0,0.2,0,0.2,0l0,0c0.1,0,0.3,0.1,0.4,0.1l0,0c0.4,0.1,0.8,0.2,1.3,0.4C89.1,157.6,89,158.9,88.8,158.9z M109.8,165.2
	c-0.5,0.8-1.3,1.3-2.6,1.6c-2.2,0.4-6.6-0.1-13.4-1.4c-1.1-0.7-2.3-1.4-3.3-2.4c-0.3-0.3-0.6-0.6-0.8-0.9l0,0l0,0
	c1.1,0.1,2.2,0.1,3.2,0.1c0,0,0,0,0,0l0,0c2.5,0.2,4.7-0.2,6.5-0.4c0.4,0,11.1,1.4,11.1,1.6C110.2,164.3,110,164.9,109.8,165.2z
	 M112.5,163.6c-0.2,0.3-0.4,0.5-0.6,0.8c0.1-0.3,0.2-0.5,0.2-0.8l0,0C112.3,163.5,112.4,163.5,112.5,163.6
	C112.5,163.6,112.5,163.6,112.5,163.6C112.5,163.6,112.5,163.6,112.5,163.6z M119.2,157.3c-0.5,1.4-1.4,2.4-2.6,3.1
	c-0.2,0-0.5-0.1-0.6-0.1c0-0.2,0.1-1.9-0.3-2.3c-0.4,0.2-0.9,0.9-1.4,2c-2-0.3-4.1-0.7-6.5-1.1c2.6-0.6,5.3-1.5,8.1-2.7
	c0.4-0.2,0.8-0.4,1.2-0.5c0.8,0.3,1.6,0.6,2.4,0.8C119.4,156.8,119.3,157.1,119.2,157.3z M119.9,154.9c-0.3-0.1-0.5-0.1-0.9-0.1
	l1.4-1.2C120.3,153.7,119.9,154.6,119.9,154.9C120.1,154.9,120.1,154.9,119.9,154.9z M120.6,158.2c0.1-0.4,0.2-0.8,0.3-1.3h0
	c0.1,0,0.3,0.1,0.5,0.1c0.1,0,0.3,0.1,0.4,0.1C121.4,157.4,121,157.8,120.6,158.2L120.6,158.2z M123.8,160.4
	c-0.8,0.3-1.7,0.6-2.5,0.9c-0.1,0-0.3-0.1-0.4-0.1c0.1,0,0.3,0.1,0.4,0.1c1.4-0.8,2.4-1.9,3.2-3.3c0.1-0.3,0.2-0.6,0.3-0.8h0
	c0.7-0.2,1.5-0.4,2.1-0.9l0,0l0,0c0.1,0,1.8-1.4,2.1-2.2l0,0l0,0l0,0c0,0,0.1,0,0.1,0.1l0,0c0,0,0,0,0,0c0.1,0,0.2,0,0.2,0.1
	c0.3,0.2,1,0.6,2.1,1.5c-0.4,0.3-0.8,0.6-1.1,0.9C128.4,158,126,159.5,123.8,160.4z M145.5,153.7c-0.1,0.3-0.1,0.6-0.2,0.9
	c-0.5,2-0.9,3.3-1.3,4c-0.2,0.5-0.6,0.9-0.9,1.2c-1.5,1.6-3.7,2.4-6.6,2.2c-3.3,0.5-5,0.7-5.2,0.7c-1,0.2-1.8,0.3-2.2,0.3
	c-0.2-0.1-0.4-0.1-0.7-0.2c-0.8-0.2-2-0.5-3.5-0.9c-0.2,0-0.4-0.1-0.6-0.1c3-1,5.7-2.5,8.1-4.5l0,0h0c0.3-0.3,0.6-0.5,0.9-0.7
	c0,0,0,0,0,0c0.3,0,0.6,0,0.9,0c0.6-0.2,1.4-0.7,2.4-1.6l0,0c1.7-0.2,6-1.4,6-1.4c-0.3,0.4-0.7,0.8-1.1,1.3l-1.6,1.5
	c-1.8,1.6-2.8,2.2-4.1,1.5c-1-0.9-1.8-1.1-1.9-0.8c-0.1,0.3-0.3,0.2-0.2,0.3c0.3,0.3,1.2,1.1,2.9,1.5c0.5,0.1,1.1-0.2,1.6-0.2
	c2.3,0,4.5-1.3,6.5-3.7C144.8,154.6,145.9,153,145.5,153.7z M146.4,147.8c0.1-0.2-2,3.1-1.9,3c-0.3,0.1-2.1,0.8-3.9,1.3
	c-0.5,0.1-1,0.2-1.5,0.3c-0.2,0.3,0.8-1.5,1-2.3c0.3-0.7,0.4-1.4,0.4-1.8c2-1.2,4-2.7,6-4.7c0-0.2,0-0.2,0,0
	C146.5,145,146.5,146.4,146.4,147.8z M147.6,123.1c0,0-1.6,1.1-2,1.4c-1.7,1.3-2.1,3.3-2.6,5.4c0,0-0.8-0.4-0.8-0.4l0,0
	c0.2-0.3,0.3-0.7,0.4-1.1c0.3-2.2,0.5-4,0.2-5.4c0.2-0.3,0.4-0.5,0.7-0.7l4.4-5.7l1.2,0.7l-1.1,4
	C147.6,122.2,147.7,122.6,147.6,123.1z M152.9,149.7c-0.2,0.1-1.7,0.8-1.9,0.9c-0.4,0.1-0.9,0-1.2,0.1c0.9-0.4,1.7-0.9,2.4-1.2
	c0.6-0.3,1.1-0.6,1.5-0.9l0,0C153.7,148.6,153.7,149.3,152.9,149.7z M155.7,147.4c0-0.1-0.2-0.5-0.1-0.5c0.5-0.6,0.9-1.1,1.5-1.6
	C156.6,146,156.2,146.9,155.7,147.4z M162.3,140.8c-0.2,0.1-0.4,0.1-0.6,0.2c0.1-0.4,0.3-0.9,0.5-1.3c0,0,0,0,0-0.1l0,0
	c1.4-0.5,2.8-1,4.1-1.5C165.6,139,164.3,139.9,162.3,140.8z M167.3,134.9c-0.1,0.4-0.2,0.8-0.3,1.1c-0.6,0.3-1.2,0.5-1.8,0.8
	c-0.4,0.1-0.8,0.2-1.2,0.4c-0.5,0.1-0.9,0.3-1.3,0.5c0.1-0.5,0.2-1.1,0.4-1.6c0.6-1.6,0.4-2.5-0.3-2.7c-0.4-0.1-1.2,1.3-2.2,4.2
	c-0.1,0.3-0.2,0.7-0.4,1c-1.1,0.5-1.7,0.8-1.8,1c-0.1,0.5,0.1,0.9,0.6,1.2c0.2-0.1,0.3-0.1,0.4-0.1c-0.3,0.6-0.5,1.1-0.6,1.6
	c-1.2,0.5-2.1,1-2.6,1.4c-0.1,0-0.1,0-0.2,0.1l0,0c-0.2,0.1-0.3,0.2-0.5,0.4c0-0.1,0-0.3,0-0.5h0c0-3.1-0.6-4.7-1.7-4.9
	c-0.4,0.1-0.6,0.1-0.7,0.1c-0.2,0.2-0.3,0.4-0.3,0.5c-0.1,0.3,0.1,1.6,0.5,3.8l0,0c0,0.2,0.1,0.5,0.1,0.8c0.1,0.9,0.1,1.7,0.2,2.5
	c-0.6,0.7-2,1.5-4.1,2.4c-0.6,0.2-1.1,0.4-1.5,0.6c0-0.2,0-0.4,0.1-0.6c0,0,0,0,0,0c0.4-0.9,0.8-1.9,1.2-2.9c1-2.7,1.9-5.8,2.7-9.1
	l0,0c0.5-0.8,1.1-1.6,1.6-2.4c0.1,0.4,0.8,0.7,1.8,1c3.3,0.7,6.2-1,8.7-5.1c0.5-0.8,0.9-1.7,1.3-2.5l1.9,4.6
	C167.5,133.3,167.5,134.2,167.3,134.9z"/>
</svg>
